<?xml version="1.0" standalone="no"?>
<!DOCTYPE svg PUBLIC "-//W3C//DTD SVG 1.1//EN" "http://www.w3.org/Graphics/SVG/1.1/DTD/svg11.dtd" >
<svg xmlns="http://www.w3.org/2000/svg" xmlns:xlink="http://www.w3.org/1999/xlink" version="1.1">
<metadata>
Created by FontForge 20200511 at Wed Mar 12 05:50:03 2014
 By convertio
Copyright (c) 2008 by . All rights reserved.
</metadata>
<defs>
<font id="dekiru" horiz-adv-x="556" >
  <font-face 
    font-family="dekiru "
    font-weight="400"
    font-stretch="normal"
    units-per-em="1000"
    panose-1="2 7 6 3 8 7 6 2 3 3"
    ascent="735"
    descent="-265"
    x-height="410"
    cap-height="735"
    bbox="-121.8 -285 943.4 941"
    underline-thickness="50"
    underline-position="-100"
    unicode-range="U+0021-2265"
  />
<missing-glyph horiz-adv-x="500" 
 />
    <glyph glyph-name=".notdef" horiz-adv-x="500" 
 />
    <glyph glyph-name="quoteright" unicode="&#x2019;" horiz-adv-x="278" 
d="M69 711q36 18 73 7.5t57 -44.5t13.5 -89.5t-57.5 -127.5q-7 -8 -12 -11t-9 -5t-7 -1q-4 2 -3.5 5.5t2.5 7.5t6 10q5 8 14.5 33t14.5 53t3 52t-20 30q-26 -8 -41 -8t-23 4q-10 4 -13 12q-6 16 -6.5 29t1.5 23q2 11 7 20z" />
    <glyph glyph-name="parenleft" unicode="(" horiz-adv-x="389" 
d="M280 -253q-49 13 -88 44q-17 13 -32.5 31.5t-27.5 43t-19.5 56t-7.5 71.5v504q0 39 7.5 70.5t19.5 56.5t27.5 43.5t32.5 31.5q39 31 88 44q13 0 16 -3.5t1 -7.5t-9 -10q-48 -26 -73 -65t-35 -74q-12 -42 -12 -86v-504q0 -45 12 -86q11 -36 35.5 -74.5t72.5 -64.5
q7 -7 9 -11t-1 -7t-16 -3z" />
    <glyph glyph-name="parenright" unicode=")" horiz-adv-x="389" 
d="M109 -253q-14 0 -16.5 3t-0.5 7t9 11q47 26 72 64.5t36 74.5q12 41 12 86v504q0 44 -12 86q-5 18 -14 37t-22 37t-30.5 35t-41.5 30q-7 6 -9 10t0.5 7.5t16.5 3.5q48 -13 87 -44q16 -13 32 -31.5t28.5 -43.5t20 -56.5t7.5 -70.5v-504q0 -40 -7.5 -71.5t-20 -56t-28.5 -43
t-32 -31.5q-39 -31 -87 -44z" />
    <glyph glyph-name="asterisk" unicode="*" horiz-adv-x="500" 
d="M232 500l-10 180q22 2 32 5.5t18 14.5q-1 -28 -3.5 -60t-5 -61t-5 -50.5t-3.5 -28.5l165 63q8 -20 15 -28t20 -13q-28 -8 -61 -16t-62 -14.5t-50 -10.5t-25 -5l98 -143q-18 -13 -24 -21t-8 -22q-12 21 -25 45t-24.5 47.5t-20.5 43t-15 31.5zM238 457q-5 -12 -14.5 -31.5
t-21 -43t-24 -47.5t-24.5 -45q-2 14 -8 22t-24 21l99 145q-12 2 -33.5 6.5t-48 10.5t-54.5 13t-52 14q13 5 20 13t15 28l164 -63z" />
    <glyph glyph-name="plus" unicode="+" horiz-adv-x="600" 
d="M553 226h-226v-226h-54v226h-199q0 20 -6 32t-21 22h226v226h54v-226h226v-54z" />
    <glyph glyph-name="comma" unicode="," horiz-adv-x="278" 
d="M72 75q36 18 73 7.5t57 -44.5t13.5 -89.5t-57.5 -127.5q-7 -8 -12 -11t-9 -5t-7 -1q-4 2 -3.5 5.5t2.5 7.5t6 10q5 8 14.5 33t14.5 53t3 52t-20 30q-26 -8 -41 -8t-23 4q-10 4 -13 12q-6 16 -6.5 29t1.5 23q2 11 7 20z" />
    <glyph glyph-name="hyphen" unicode="-" horiz-adv-x="389" 
d="M321 216h-191h-27q0 20 -6 32t-21 22h245v-54z" />
    <glyph glyph-name="period" unicode="." horiz-adv-x="278" 
d="M178 73q5 -21 6 -35.5t-1 -24.5q-2 -11 -5 -18q-26 -8 -41 -8t-23 4q-10 4 -13 12q-6 16 -6.5 27.5t1.5 19.5q2 9 7 15q7 9 20 11.5t25 1.5q14 -1 30 -5z" />
    <glyph glyph-name="slash" unicode="/" horiz-adv-x="389" 
d="M78 -16h-62q70 174 119 305t97 222t105 142.5t141 66.5q12 1 16 -1t1 -6.5t-23 -14.5q-33 -16 -66 -42q-28 -23 -59 -60.5t-54 -94.5z" />
    <glyph glyph-name="zero" unicode="0" 
d="M463 547q4 -23 7 -52q2 -26 4 -61.5t2 -82.5q1 -52 -1.5 -89.5t-4.5 -63.5q-4 -30 -7 -51q-12 -46 -32 -77t-45.5 -50t-55.5 -27t-63 -8q-56 2 -92 21.5t-58 42.5q-26 26 -39 58v244v237q13 34 39 61q11 11 25 22t32.5 19.5t41.5 14t51 5.5q33 0 63 -7.5t55.5 -26
t45.5 -50t32 -79.5zM409 175q5 46 6 87t1 82v7v7q0 35 -1 78t-6 84q-12 45 -31 80q-17 30 -43.5 54t-67.5 22q-20 0 -40 -5.5t-37 -16.5t-30.5 -29.5t-20.5 -43.5v-461q7 -25 20.5 -44t30.5 -31.5t37 -19t40 -6.5q41 -3 67.5 21t43.5 54q19 35 31 81z" />
    <glyph glyph-name="one" unicode="1" 
d="M281 475q2 40 -9 80q-10 34 -33.5 70.5t-71.5 64.5q-6 3 -9 7q-2 2 0 4.5t15 2.5q49 -11 87 -39q16 -12 31.5 -29t27 -40t18 -53t5.5 -68v-476h-61v476z" />
    <glyph glyph-name="two" unicode="2" 
d="M82 640q-11 -1 -15 2q-4 2 -2 8t17 17q16 14 55 26.5t84.5 16t90.5 -6t75 -38.5t37 -81.5t-24 -136.5l-265 -391h279v-56h-389l305 448q13 22 23 51.5t11 58.5t-11.5 54t-44 39t-86.5 13t-140 -24z" />
    <glyph glyph-name="three" unicode="3" 
d="M367 275q-17 22 -46.5 34t-63.5 17.5t-67 6.5t-58 1q-11 0 -18.5 4t-9 8.5t4.5 9t24 5.5q51 -2 97 5q39 6 78 22t59 48q4 6 6 32.5t-3 60.5t-19.5 68.5t-42 57t-71.5 26.5t-108 -23q-13 0 -18 3q-5 2 -4 7t16 15q30 17 66 23q31 5 71.5 1t88.5 -29q33 -19 56 -57
q10 -16 18 -37.5t13 -49.5t5 -62t-7 -76q-10 -9 -21 -17t-25 -15.5t-31 -15.5q17 -8 31 -17t25 -17q11 -10 21 -19q9 -85 -3.5 -138.5t-30.5 -84.5q-21 -36 -51 -54q-48 -26 -88.5 -29.5t-71.5 1.5q-36 6 -66 23q-15 9 -16 14.5t4 7.5q5 3 18 3q64 -28 106.5 -23.5t69.5 28
t40 59t18 71t4.5 64.5t-0.5 38z" />
    <glyph glyph-name="four" unicode="4" 
d="M497 277h-95v-278h-62l-2 278h-249h22h-35h-48l156 307q16 34 36 58t41 39.5t43 24t42 12.5q47 9 96 -4q11 -3 11.5 -5.5t-1.5 -4.5q-4 -3 -10 -4q-54 -3 -92 -25.5t-63 -48.5q-29 -31 -48 -68l-123 -246h222l2 252h62v-252h95v-35z" />
    <glyph glyph-name="five" unicode="5" 
d="M450 350q24 -96 22.5 -158.5t-13.5 -99.5q-14 -44 -40 -67q-29 -23 -61 -31t-80 -7q-50 0 -83 11t-53 24q-24 15 -36 35q-8 12 -4 13.5t12 -1.5q9 -4 23 -12q75 -30 125.5 -30.5t82 18t46 51t18 69t-1.5 72t-13 59.5l-301 100v308h44h237q8 3 21.5 7.5t23.5 12.5
q7 5 11 6t7 -1.5t1 -11.5q-12 -15 -35 -27q-20 -11 -51.5 -20t-79.5 -11h-121v-240l299 -69v0z" />
    <glyph glyph-name="six" unicode="6" 
d="M472 99q-13 -29 -38 -53q-21 -20 -57 -38.5t-90 -20.5q-32 0 -62 8t-56 26.5t-46.5 47.5t-32.5 71q-8 49 -11 104q-2 46 1 103.5t18 114.5q28 75 67 133q16 25 37 48.5t45.5 41t52.5 27.5t60 8q5 -2 4 -6q-1 -3 -7 -7t-23 -9q-29 -15 -56.5 -37.5t-51 -55.5t-41.5 -79
t-28 -107l315 -71v-249zM413 296l-264 83q-2 -25 -4 -48.5t-2.5 -48.5t0.5 -53.5t6 -62.5q10 -41 28 -73q16 -27 42 -49.5t68 -22.5q40 0 76 21t50 71v183z" />
    <glyph glyph-name="seven" unicode="7" 
d="M314 237q-16 -35 -20 -74q-3 -33 6.5 -73.5t45.5 -81.5q5 -7 7 -11t-0.5 -5.5t-12.5 3.5q-43 26 -69 65q-12 16 -21 36.5t-13 45.5t-1 53.5t15 61.5l153 387h-311q2 19 -1 30.5t-8.5 18t-10.5 9t-6 2.5h420z" />
    <glyph glyph-name="eight" unicode="8" 
d="M486 275q13 -59 12 -107t-8 -83q-8 -40 -23 -73q-67 -14 -119.5 -19.5t-92.5 -5.5t-68.5 5t-48.5 13q-47 17 -61 48q-16 40 -17.5 83.5t2.5 80.5q4 43 15 84q14 16 32.5 31t35.5 26q19 13 39 25h7q-26 5 -41.5 14t-24.5 18q-11 10 -15 21q-15 38 -16 78.5t4 74.5
q5 40 18 77q7 16 24.5 25.5t41 14t51 5t54.5 -1.5q64 -5 140 -23q17 -61 19.5 -113.5t-2.5 -91.5q-5 -46 -17 -84q-16 -6 -34 -7.5t-34 -6.5q28 -13 50.5 -28t38.5 -29q18 -16 32 -31zM171 444q12 -13 39 -20q23 -6 63.5 -6.5t105.5 13.5q9 18 13 48q3 26 1.5 68t-14.5 106
q-55 9 -99 10q-38 1 -71 -5.5t-38 -26.5q-13 -27 -18 -58q-5 -26 -2.5 -60t20.5 -69zM417 47q11 18 17 48q5 26 6 68t-9 105q-22 28 -47 42t-47 20q-26 7 -51 6q-42 2 -69.5 -5.5t-45.5 -18.5q-21 -12 -34 -30q-10 -36 -14 -73q-3 -32 0 -70t20 -73q9 -18 42 -28
q28 -8 82.5 -8.5t149.5 17.5z" />
    <glyph glyph-name="nine" unicode="9" 
d="M84 609q14 29 40 53q22 20 57.5 38t90.5 21q32 0 62 -8t56 -26.5t46 -47.5t32 -71q7 -50 10 -104q2 -47 -1.5 -104t-18.5 -114q-25 -76 -62 -134q-16 -25 -35.5 -48t-43.5 -41t-51.5 -27.5t-59.5 -7.5q-7 2 -9 6q-2 3 3 7t22 9q30 13 56 35t48.5 55.5t42.5 81.5t37 114
l-322 72v241zM143 422l268 -84q2 25 3.5 47t1.5 45.5t-2.5 50t-6.5 61.5q-10 40 -28 72q-16 27 -42 50t-68 23q-41 0 -76.5 -21.5t-49.5 -70.5v-173z" />
    <glyph glyph-name="colon" unicode=":" horiz-adv-x="278" 
d="M182 84q5 -23 6.5 -39.5t-0.5 -27.5q-2 -12 -6 -20q-29 -9 -46 -9t-26 4q-11 4 -14 14q-7 17 -7 30t2 21q3 10 7 17q8 10 22 13t28 2q16 -1 34 -5zM182 371q5 -23 6.5 -39.5t-0.5 -27.5q-2 -12 -6 -20q-29 -9 -46 -9t-26 4q-11 4 -14 14q-7 17 -7 30t2 21q3 10 7 17
q8 10 22 13t28 2q16 -1 34 -5z" />
    <glyph glyph-name="semicolon" unicode=";" horiz-adv-x="278" 
d="M182 371q5 -23 6.5 -39.5t-0.5 -27.5q-2 -12 -6 -20q-29 -9 -46 -9t-26 4q-11 4 -14 14q-7 17 -7 30t2 21q3 10 7 17q8 10 22 13t28 2q16 -1 34 -5zM72 79q36 18 73 7.5t57 -44.5t13.5 -89.5t-57.5 -127.5q-7 -8 -12 -11t-9 -5t-7 -1q-4 2 -3.5 5.5t2.5 7.5t6 10
q5 8 14.5 33t14.5 53t3 52t-20 30q-26 -8 -41 -8t-23 4q-10 4 -13 12q-6 16 -6.5 29t1.5 23q2 11 7 20z" />
    <glyph glyph-name="less" unicode="&#x3c;" horiz-adv-x="600" 
d="M47 216v73l447 196q7 -19 23.5 -35t34.5 -23q-16 -7 -23.5 -10t-19 -7t-32 -12t-61 -25t-107 -45.5t-170.5 -73.5l413 -170v-71z" />
    <glyph glyph-name="equal" unicode="=" horiz-adv-x="600" 
d="M553 125h-452h-27q0 20 -6 32t-21 22h506v-54zM553 321h-452h-27q0 20 -6 32t-21 22h506v-54z" />
    <glyph glyph-name="greater" unicode="&#x3e;" horiz-adv-x="600" 
d="M48 13v71l413 170q-104 45 -170.5 73.5t-107 45.5t-61 25t-32 12t-19.5 7t-23 10q18 7 34.5 23t23.5 35l447 -196v-73z" />
    <glyph glyph-name="question" unicode="?" horiz-adv-x="500" 
d="M197 712q49 9 85 -1.5t61 -26.5q28 -19 49 -46q1 -64 0.5 -103.5t-0.5 -62.5q-1 -26 -1 -38q-93 -59 -136.5 -108.5t-58.5 -85.5q-18 -42 -9 -76q0 -16 -4 -18.5t-9 0.5q-5 4 -12 13q-8 31 -5.5 60t12 55t24 48.5t31.5 41.5q39 44 94 79q2 38 2.5 70t-0.5 57q-1 28 -2 53
q-7 17 -22 27.5t-26 13.5q-44 13 -75 5t-50 -23q-23 -18 -37 -45q-7 -10 -11 -7t-4.5 13t4 25t17 30.5t32.5 29t51 20.5zM216 83q-17 4 -33 5q-14 1 -27 -1.5t-21 -12.5q-4 -6 -7 -16q-2 -8 -2 -21t7 -30q3 -9 14 -13q8 -4 24.5 -4t44.5 9q3 7 5 19q2 10 1 26t-6 39z" />
    <glyph glyph-name="at" unicode="@" horiz-adv-x="800" 
d="M265 299q21 18 55 36q29 16 74.5 35t111.5 38q0 36 -18 62q-8 11 -19.5 21.5t-29 18t-41 10.5t-54.5 0q-3 -2 -7 -2q-7 -2 -12 2q0 5 7.5 7.5t17.5 4.5q54 8 98 2q19 -3 37 -8.5t33 -16t26 -27t14 -39.5v-248q12 -12 34 -12q36 0 64 20t46.5 52t28.5 71.5t10 77.5
q0 46 -21.5 95t-62 89.5t-100.5 66.5t-136 26q-68 0 -128 -20.5t-104.5 -62.5t-70 -106.5t-25.5 -152.5q0 -57 25 -114t70 -102t107.5 -73t136.5 -28q39 0 70.5 3t58.5 9t50.5 15t45.5 20q5 3 9 4q10 2 15 -2q5 -6 -4 -15q-4 -4 -10 -8q-63 -35 -123.5 -49t-109.5 -14
q-107 0 -184 34.5t-127 87t-74 114t-24 115.5q0 85 31 155.5t84.5 121t125.5 78t155 27.5q73 0 137 -23.5t111 -65.5t74.5 -99t27.5 -124q0 -122 -51 -187.5t-144 -65.5q-19 0 -36 4t-31 12l-10 -4q-27 -8 -61 -15t-67.5 -7t-62 9t-43.5 33q-5 16 -8 34q-2 16 -1 36.5
t9 43.5zM506 371q-48 -19 -84 -36t-60 -31q-28 -16 -48 -30q-7 -15 -6 -29t5 -25q4 -12 12 -23q16 -18 46 -20.5t60 2.5q35 5 75 18v174z" />
    <glyph glyph-name="A" unicode="A" horiz-adv-x="667" 
d="M593 19q14 -8 18.5 -12.5t4.5 -7.5t-3 -4t-5 -1q-7 1 -13 3.5t-11 4.5q-6 3 -11 5q-29 15 -52.5 43t-40.5 55q-20 32 -37 67l-14 34h-244l-68 -206h-62l240 720h28l178 -528q20 -59 36 -93t29 -52q14 -21 27 -28zM416 257l-107 327l-109 -327h216z" />
    <glyph glyph-name="B" unicode="B" horiz-adv-x="611" 
d="M436 355q29 -5 47.5 -21.5t29.5 -40t15 -52t4 -57.5q-1 -68 -21 -151q-79 -20 -154.5 -27t-135.5 -9q-70 -2 -133 3v703q106 10 184.5 7.5t132.5 -10.5q62 -9 106 -23q13 -59 17.5 -104.5t1.5 -79t-11 -57t-18 -38.5q-25 -36 -65 -43zM148 386q42 -3 83 -5q35 -2 76.5 -1
t76.5 6q38 6 62 35q10 12 18 30t10.5 44.5t-1 61t-16.5 79.5q-49 10 -102 16q-45 5 -99.5 7.5t-107.5 -2.5v-271zM456 66q13 45 17 80.5t2.5 62t-8 45.5t-15.5 32q-20 30 -55 38q-35 5 -78.5 6t-81.5 -1q-45 -2 -89 -5v-278q53 0 106 3t97 7q51 4 98 10h7z" />
    <glyph glyph-name="C" unicode="C" horiz-adv-x="667" 
d="M620 58q5 -5 2.5 -11.5t-25.5 -17.5q-82 -25 -146 -35.5t-113.5 -10.5t-85 8.5t-59.5 21.5q-58 30 -76 85q-21 57 -32 109.5t-14.5 100.5t-1 90t8.5 77q14 83 46 150q18 38 53.5 59t79 29.5t92.5 7t95 -8.5t85.5 -17t64.5 -18q20 -5 24.5 -9.5t2.5 -9.5t-13.5 -3t-26.5 4
q-14 2 -45.5 5t-72.5 5t-86 2t-84.5 -5t-69 -17t-39.5 -32q-34 -72 -48 -156q-6 -36 -8.5 -78.5t2 -90t17.5 -99.5t37 -106q27 -28 79 -44q22 -7 52 -11.5t69 -4.5t87.5 5t107.5 17q16 5 26 9.5t15 -0.5z" />
    <glyph glyph-name="D" unicode="D" horiz-adv-x="722" 
d="M107 0v705q125 8 216 2t153 -17q71 -12 122 -30q27 -91 40.5 -165t18 -133.5t1 -104.5t-11.5 -79q-18 -79 -60 -119q-18 -17 -48.5 -29t-67.5 -19.5t-78.5 -11t-81.5 -4.5q-95 -3 -203 5zM167 52q83 -6 155 -4q31 1 62.5 3.5t59.5 7.5t50.5 13.5t36.5 20.5q38 39 55 110
q7 30 10.5 70.5t-0.5 92t-16 115.5t-36 142q-47 9 -106 17q-51 7 -119.5 13.5t-151.5 8.5v-610z" />
    <glyph glyph-name="E" unicode="E" horiz-adv-x="667" 
d="M144 704h302q38 0 60.5 4.5t34.5 9.5q14 6 19 14q8 2 9.5 -0.5t0.5 -7.5t-4 -13q-17 -25 -45 -37t-55 -17q-32 -6 -67 -6h-195v-262h209v-47h-209v-289h196q35 0 67 -6q27 -5 55 -17.5t45 -36.5q3 -8 4 -13t-0.5 -8t-9.5 0q-5 8 -19 14q-12 5 -34.5 9.5t-60.5 4.5h-303
v704z" />
    <glyph glyph-name="F" unicode="F" horiz-adv-x="611" 
d="M100 0v704h302q38 0 60.5 4.5t34.5 9.5q14 6 19 14q8 2 9.5 -0.5t0.5 -7.5t-4 -13q-17 -25 -45 -37t-55 -17q-32 -6 -67 -6h-195v-263h209v-46h-209v-342h-60z" />
    <glyph glyph-name="G" unicode="G" horiz-adv-x="722" 
d="M622 47q-93 -38 -169 -52.5t-135.5 -13.5t-103 14t-72.5 29t-44.5 30.5t-17.5 20.5q-25 63 -38 120t-17.5 107.5t-2 94t8.5 79.5q14 84 49 149q19 38 54 59t78.5 29.5t92.5 7t95 -8.5t85.5 -17t64.5 -18q20 -5 24.5 -9.5t2.5 -9.5t-13.5 -3t-26.5 4q-13 2 -45 5t-73 5
t-86 2t-84.5 -5t-69 -17t-39.5 -32q-33 -70 -47 -154q-6 -36 -8.5 -78t2 -89t17.5 -98.5t37 -105.5q36 -29 95 -42q25 -6 57.5 -8.5t73.5 -0.5t91 11t109 27q12 59 18.5 100.5t8.5 68.5q3 32 3 52h-144v42h206q-2 -54 -7.5 -107t-12 -95t-11.5 -68t-6 -25z" />
    <glyph glyph-name="H" unicode="H" horiz-adv-x="778" 
d="M119 704q25 0 37.5 5t17.5 11q6 7 5 16v-348h443v316h60v-704h-60v342h-443v-342h-60v704z" />
    <glyph glyph-name="I" unicode="I" horiz-adv-x="334" 
d="M127 704q23 0 35.5 4.5t17.5 10.5q6 7 7 16v-735h-60v704z" />
    <glyph glyph-name="J" unicode="J" horiz-adv-x="389" 
d="M235 704q20 0 32.5 5t18.5 11q7 7 9 16v-542q0 -47 -8.5 -83t-22 -63t-31.5 -47t-36 -33q-43 -32 -97 -41q-19 -3 -27 1q-4 2 -5 5q-2 3 1 5.5t7 4.5t11 3q28 8 49.5 22t35.5 29q17 17 28 37q14 17 21 44t10 53q4 31 4 64v509z" />
    <glyph glyph-name="K" unicode="K" horiz-adv-x="722" 
d="M120 704q22 0 34 5t18 11q7 7 8 16v-388l261 221q14 11 26.5 25.5t23.5 28.5q12 16 23 33q2 5 3.5 11.5t2.5 12.5q1 7 1 15q5 8 9 7.5t6 -3.5q3 -4 5 -10q2 -26 0.5 -44t-4.5 -31q-4 -15 -9 -25q-5 -11 -23.5 -29.5t-38.5 -37.5q-24 -22 -52 -46l-159 -137l353 -339h-77
l-351 328v-328h-60v704z" />
    <glyph glyph-name="L" unicode="L" horiz-adv-x="605" 
d="M511 86q7 3 9 0.5t1 -7.5t-4 -13q-17 -28 -45.5 -42t-55.5 -19q-32 -6 -67 -5h-257v704q22 0 34 4.5t18 10.5q7 7 8 16v-675h245q38 0 60 4t34 9q14 5 20 13z" />
    <glyph glyph-name="M" unicode="M" horiz-adv-x="833" 
d="M99 704h81l227 -557q7 17 21.5 50t33 75.5t39 91t41.5 96.5q48 113 106 244h81v-704h-60v617l-182 -415q-16 -38 -33 -62t-31 -38q-17 -17 -34 -24q-10 -5 -18 -7.5t-13 -3.5q-7 -1 -12 0q-13 0 -16 2t-2 5q1 4 6 8q13 2 19 6.5t9 8.5t3 10l-206 510v-617h-60v704z" />
    <glyph glyph-name="N" unicode="N" horiz-adv-x="722" 
d="M600 -8l-437 625v-617h-60v704h66l388 -559v559h60v-712h-17z" />
    <glyph glyph-name="O" unicode="O" horiz-adv-x="722" 
d="M631 666q35 -149 40 -264.5t-4 -195.5q-11 -93 -36 -163q-93 -29 -166 -42.5t-129 -15t-96.5 6.5t-68.5 20q-66 29 -89 85q-23 57 -34.5 109t-15.5 99.5t-1 89t9 76.5q14 82 48 148q18 37 50.5 58.5t74 31.5t88.5 11t94 -4q109 -11 236 -50zM594 73q0 6 11 45.5
t17.5 110.5t2 172t-34.5 232q-102 24 -190 32q-38 3 -75.5 3.5t-71 -5t-59.5 -17t-39 -32.5q-38 -71 -54 -155q-7 -36 -9.5 -78t2 -88.5t17.5 -97t39 -103.5q36 -28 98 -41q26 -6 60.5 -9t77 -1.5t94.5 9t114 23.5z" />
    <glyph glyph-name="P" unicode="P" horiz-adv-x="611" 
d="M101 0v705q115 5 193 -0.5t128 -13.5q58 -11 94 -25q11 -41 16 -75t5 -62t-3.5 -50t-8.5 -39q-12 -40 -35 -64q-14 -12 -35.5 -20.5t-47 -13.5t-54 -7.5t-55.5 -2.5q-64 -2 -137 5v-337h-60zM161 384q40 -3 83 -4q37 -1 82 1t91 10q29 11 46 42q7 13 12.5 31.5t6.5 43
t-3.5 56.5t-16.5 73q-51 8 -103 12q-45 4 -97.5 6t-100.5 0v-271z" />
    <glyph glyph-name="Q" unicode="Q" horiz-adv-x="722" 
d="M631 666q35 -149 40 -264.5t-4 -195.5q-11 -93 -36 -163q-64 -20 -118.5 -32.5t-100.5 -17.5q3 -21 24 -50t76 -52q8 -4 13 -8q11 -9 7 -19q-2 -3 -6 -5t-10.5 -1t-16.5 6q-36 11 -68 28q-27 14 -54 37t-40 57q-85 -3 -135 14t-77 39q-32 26 -43 58q-23 57 -34.5 109
t-15.5 99.5t-1 89t9 76.5q14 82 48 148q18 37 50.5 58.5t74 31.5t88.5 11t94 -4q109 -11 236 -50zM594 73q0 6 11 45.5t17.5 110.5t2 172t-34.5 232q-102 24 -190 32q-38 3 -75.5 3.5t-71 -5t-59.5 -17t-39 -32.5q-38 -71 -54 -155q-7 -36 -9.5 -78t2 -88.5t17.5 -97
t39 -103.5q36 -28 98 -41q26 -6 60.5 -9t77 -1.5t94.5 9t114 23.5zM412 0v-1v1z" />
    <glyph glyph-name="R" unicode="R" horiz-adv-x="667" 
d="M461 80h-1q22 -23 39 -36t29 -20q14 -8 24 -11q9 -4 17 -4.5t15 -1t11 -1.5t4 -7t-4.5 -8.5t-11 -3.5t-13 -1h-10.5q-17 0 -30.5 2.5t-24.5 5.5q-12 4 -22 9q-10 3 -22.5 12.5t-24.5 21.5t-22.5 23t-16.5 17l-194 258l-47 2v-337h-60v704q33 2 63 2h57q91 0 148 -5.5
t90 -12.5q39 -8 58 -17q13 -46 18 -83t5 -66q0 -36 -5.5 -61.5t-12.5 -41.5q-8 -18 -18 -30q-13 -19 -39 -30t-58 -16.5t-67.5 -6.5t-66.5 -1zM156 384q11 -1 25 -2q12 -1 28.5 -1h36.5q36 0 79 2t87 10q18 6 32 22q12 14 22.5 37.5t10.5 64.5q0 24 -4.5 53.5t-15.5 66.5
q-40 5 -82 9q-37 4 -81.5 7t-89.5 3h-24.5t-23.5 -1v-271z" />
    <glyph glyph-name="S" unicode="S" 
d="M68 622q18 34 44.5 54.5t58 31t66 12t67.5 -1.5q77 -8 164 -41q15 -15 7.5 -18.5t-22.5 -1.5q-18 3 -45 11q-85 14 -138 9.5t-83 -16.5q-35 -14 -52 -36q-16 -40 -16 -76t6 -63q7 -33 21 -60q73 -18 132 -34t101 -28q49 -14 87 -26q21 -50 30 -91t9 -73.5t-6.5 -57.5
t-16.5 -43q-24 -43 -67 -64q-39 -16 -74.5 -21t-67 -2.5t-58.5 10.5t-49 19q-52 26 -92 68q-10 12 -12 20.5t0.5 12.5t8 4t10.5 -5q12 -15 29 -27l18 -12q44 -24 81 -35t67 -13t53.5 4t41.5 15q42 22 66 66q8 35 5 68t-9 59q-7 30 -18 56q-66 14 -123.5 30t-101.5 30
q-51 16 -95 30q-26 45 -33.5 87.5t-5.5 75.5q2 39 12 73z" />
    <glyph glyph-name="T" unicode="T" horiz-adv-x="668" 
d="M363 0h-60v651h-252q4 27 -6 39t-14 14h487q38 0 60.5 4.5t34.5 9.5q14 6 19 14q8 2 9.5 -0.5t0.5 -7.5t-4 -13q-17 -25 -45 -37t-55 -17q-32 -6 -67 -6h-108v-651z" />
    <glyph glyph-name="U" unicode="U" horiz-adv-x="722" 
d="M97 704q20 0 32.5 4.5t18.5 10.5q7 7 9 16v-556q3 -30 13.5 -53t25.5 -39t33 -27t36 -17q43 -15 96 -14q40 -1 70.5 5t53 16.5t37.5 24t24 27.5q22 33 24 76v526h60v-526q0 -38 -11.5 -66.5t-30.5 -49.5t-43.5 -34.5t-49.5 -22.5q-59 -21 -134 -22q-49 0 -86.5 8.5
t-65 22t-47 31t-31.5 35.5q-30 43 -34 98v526z" />
    <glyph glyph-name="V" unicode="V" horiz-adv-x="722" 
d="M77 670q19 0 29.5 5t15.5 12t6 17l230 -654l228 654h63l-241 -704h-100z" />
    <glyph glyph-name="W" unicode="W" horiz-adv-x="944" 
d="M48 670q20 0 30.5 5t15.5 12t6 17l230 -654l106 293q-20 63 -37 112t-33 96q-14 39 -32.5 63.5t-35.5 38.5q-20 16 -41 24q-20 11 -20.5 17t6.5 8q8 3 25 2q39 -16 68 -38.5t48 -43.5q22 -25 37 -50q3 -7 7 -16t10.5 -28t18 -52.5t31 -89t47.5 -137.5t69 -199l230 654h64
l-243 -704h-102l-83 247l-90 -247h-100z" />
    <glyph glyph-name="X" unicode="X" horiz-adv-x="678" 
d="M551 0h-67l-175 337l-181 -337h-73l219 394l-176 310h71l139 -248q33 63 79 116q19 22 43.5 44t53.5 40.5t62 31t71 16.5q12 -1 16 -4q4 -2 0 -6t-24 -12q-35 -14 -70 -39q-30 -22 -65.5 -57t-65.5 -89l-66 -101z" />
    <glyph glyph-name="Y" unicode="Y" horiz-adv-x="667" 
d="M80 678q17 0 28 4t17 9q7 5 9 13l199 -379l186 379h65l-222 -463v-241h-60v241z" />
    <glyph glyph-name="Z" unicode="Z" horiz-adv-x="667" 
d="M563 704l-400 -651h238q35 0 67 -6q27 -5 55 -17.5t45 -36.5q3 -8 4 -13t-0.5 -8t-9.5 0q-5 8 -19 14q-12 5 -34.5 9.5t-60.5 4.5h-387l394 644h-340q2 20 -1.5 32t-9.5 18q-7 7 -16 10h475z" />
    <glyph glyph-name="bracketleft" unicode="[" horiz-adv-x="389" 
d="M135 729h62q38 0 60.5 4.5t34.5 9.5q14 6 19 14q8 2 9.5 -0.5t0.5 -7.5t-4 -13q-16 -22 -37.5 -34t-40.5 -18t-32 -7t-12 -1v-862q-2 0 11 -1.5t32.5 -7.5t41.5 -18t38 -33q3 -8 4 -13t-0.5 -8t-9.5 0q-5 8 -19 14q-12 5 -34.5 9.5t-60.5 4.5h-63v968z" />
    <glyph glyph-name="backslash" unicode="\" horiz-adv-x="389" 
d="M100 501q-24 57 -54.5 94.5t-58.5 60.5q-33 26 -66 42q-20 10 -23.5 14.5t0.5 6.5t17 1q84 -15 141 -66.5t105 -142.5t97 -222t119 -305h-62z" />
    <glyph glyph-name="bracketright" unicode="]" horiz-adv-x="389" 
d="M253 -239h-63q-38 0 -60.5 -4.5t-34.5 -9.5q-14 -6 -19 -14q-8 -3 -10 0t-1 8t5 13q16 21 38 33t41.5 18t32.5 7.5t11 1.5v862q1 0 -12 1t-32 7t-40.5 18t-37.5 34q-4 8 -5 13t1 7.5t10 0.5q5 -8 19 -14q12 -5 34.5 -9.5t60.5 -4.5h62v-968z" />
    <glyph glyph-name="asciicircum" unicode="^" horiz-adv-x="600" 
d="M474 331h-51l-124 300q-33 -76 -53.5 -124t-33 -78t-18.5 -44.5t-9 -23t-5 -14t-7 -16.5q-5 14 -16.5 25.5t-25.5 16.5l142 325h53z" />
    <glyph glyph-name="underscore" unicode="_" horiz-adv-x="500" 
d="M499 -124h-445h-27q0 20 -6 32t-21 22h499v-54z" />
    <glyph glyph-name="quoteleft" unicode="&#x2018;" horiz-adv-x="278" 
d="M207 443q-36 -18 -73 -7.5t-57 44.5t-13.5 89.5t57.5 127.5q7 8 12 11t9 5t7 1q5 -3 1 -13q-2 -4 -6 -10q-5 -8 -14.5 -33t-14.5 -53t-3 -52t20 -30q26 8 41 8t23 -4q10 -4 13 -12q6 -16 6.5 -29t-1.5 -23q-3 -11 -7 -20z" />
    <glyph glyph-name="a" unicode="a" horiz-adv-x="500" 
d="M396 0h-61v15q-30 -10 -69.5 -19t-78.5 -9.5t-72 10t-51 38.5q-7 17 -10 38q-2 17 -1.5 40.5t11.5 49.5q24 20 62 41q32 18 83.5 39.5t125.5 42.5q-1 40 -20 71q-8 13 -21.5 25t-33 20t-46 12t-61.5 0q-4 -2 -8 -2q-7 -1 -14 2q0 5 8.5 8.5t19.5 5.5q61 9 111 2
q21 -3 42 -9.5t38.5 -18.5t29.5 -30.5t16 -44.5v-327zM131 48q18 -20 52 -22.5t68 2.5q40 6 84 20v197q-54 -21 -94.5 -40.5t-67.5 -34.5q-33 -18 -55 -34q-8 -18 -7 -34t6 -28q5 -14 14 -26z" />
    <glyph glyph-name="b" unicode="b" 
d="M113 710q14 2 31.5 5.5t28.5 21.5v-54v-271q104 -30 163.5 -54t89.5 -40q35 -19 45 -34q3 -3 6 -19.5t5 -40t1.5 -51.5t-3.5 -54t-10 -47t-19 -31q-20 -18 -43 -28t-46.5 -14.5t-46.5 -5t-44 2.5q-49 6 -98 25v-21h-60v710zM173 54q40 -14 80 -18q34 -3 74.5 3.5
t75.5 35.5q11 24 17 52q5 24 6 56t-9 68q-5 7 -31 22q-23 13 -72.5 35t-140.5 58v-312z" />
    <glyph glyph-name="c" unicode="c" horiz-adv-x="444" 
d="M368 24q16 2 28 2q11 0 20 -2t9 -7q-3 -2 -8 -4q-9 -5 -34 -9q-74 -14 -137 -15q-27 0 -54.5 2t-52 9t-44 19.5t-30.5 32.5q-6 21 -10 46q-4 21 -7 49t-3 60v8q0 32 3 60t7 49q4 25 10 46q11 19 29.5 31.5t41.5 19.5t48.5 9.5t51.5 2.5q59 -1 128 -15q13 -2 21 -4.5
t13 -4.5l8 -4q0 -6 -9 -8t-20 -2q-12 0 -28 2q-81 6 -127 -2t-69 -20q-27 -14 -35 -33q-11 -38 -12.5 -69.5t-1.5 -57.5q0 -32 2.5 -64.5t13.5 -70.5q8 -22 37 -36q25 -13 74.5 -20.5t136.5 0.5z" />
    <glyph glyph-name="d" unicode="d" 
d="M453 0h-63v20q-50 -20 -100 -26q-21 -3 -44.5 -2.5t-47.5 5t-47 15t-44 28.5q-12 10 -19 31t-10.5 47t-4 53.5t1.5 51t5.5 40t7.5 20.5q10 15 45 34q30 17 90 40t167 54v269v54q12 -16 29.5 -19.5t33.5 -8.5v-706zM157 73q18 -14 37.5 -22t39 -12t39 -5t36.5 1
q40 4 81 17v311q-93 -36 -143 -58t-73 -35q-27 -15 -31 -22q-8 -35 -7 -66.5t6 -55.5q5 -28 15 -53z" />
    <glyph glyph-name="e" unicode="e" horiz-adv-x="444" 
d="M292 7l10 2q10 2 10 -2q0 -2 -3.5 -7t-16.5 -7q-62 -10 -112 -3q-21 3 -42 9.5t-38.5 19t-29.5 31t-16 45.5v311q80 19 147 25q28 3 57 2.5t53 -5t42 -15t26 -28.5q9 -19 13 -39q3 -18 1.5 -40.5t-14.5 -48.5q-22 -18 -58 -37q-31 -17 -81.5 -37.5t-124.5 -40.5
q2 -43 20 -75q8 -14 20.5 -26t31.5 -21t44.5 -13t60.5 0zM115 176q54 20 94.5 39.5t67.5 34.5q32 18 55 34q8 18 7 34t-6 28q-5 14 -15 27q-20 19 -54.5 22t-67.5 -2q-39 -6 -81 -20v-197z" />
    <glyph glyph-name="f" unicode="f" horiz-adv-x="333" 
d="M294 736q13 0 16 -3.5t1 -7.5t-9 -10q-48 -26 -73 -65t-35 -74q-12 -42 -12 -86v-69h98v-35h-98v-386h-63v386h-98v35h98v69q0 39 7.5 70.5t19.5 56.5t27.5 43.5t32.5 31.5q39 31 88 44z" />
    <glyph glyph-name="g" unicode="g" horiz-adv-x="500" 
d="M449 -19q13 -45 13 -82.5t-5 -65.5q-6 -33 -19 -59q-15 -19 -40.5 -31t-58 -18t-68.5 -6.5t-71.5 3.5t-67.5 12t-55 20q-9 5 -16 11q-6 5 -10.5 12t-4.5 15q2 2 11.5 0.5t19.5 -4.5q11 -4 25 -10q56 -17 106 -22q21 -3 43.5 -3t44 3t40 10t32.5 20q12 9 20 28q7 17 11 45
t-1 75q-3 1 -18.5 4.5t-39.5 9t-53.5 11.5t-60.5 12q-72 14 -163 31v68q5 34 23 55.5t43 31.5q-13 8 -19.5 14t-9.5 11q-4 5 -4 9q-15 38 -17 73.5t2 64.5q4 33 15 63q7 15 24 24t39 13t48 4.5t52 -1.5q61 -4 134 -20q14 -56 16 -102.5t-2 -80.5q-4 -40 -14 -72
q-76 -15 -128 -16.5t-81 3.5q-32 -8 -46.5 -23.5t-19.5 -31.5q-5 -18 -2 -40q16 -4 39.5 -9t50 -10.5t55 -11.5t55.5 -11q63 -13 133 -26zM148 364q0 3 -6 -10t-9.5 -35.5t-1.5 -52t17 -59.5q10 -13 35 -19q21 -6 60 -6.5t105 12.5q10 11 14 35q4 20 4 54t-11 88
q-51 13 -93 17q-18 2 -36 2t-33.5 -2t-27.5 -8t-17 -16z" />
    <glyph glyph-name="h" unicode="h" 
d="M454 0h-60v189q0 43 -1 79q-2 31 -4.5 59.5t-8.5 37.5q-5 8 -14.5 12t-21 4.5t-23.5 -2t-22 -7.5q-28 -10 -66 -27t-69 -27v-318h-61v704q17 2 32.5 8t28.5 25v-399q15 7 33.5 17t36.5 19.5t35 18t30 13.5q10 6 28 12t47 8q30 0 46 -13.5t24 -30.5q9 -19 10 -44v-338z
" />
    <glyph glyph-name="i" unicode="i" horiz-adv-x="278" 
d="M109 409q15 1 32.5 6.5t27.5 21.5v-437h-60v409zM168 639q4 -17 4.5 -28t-0.5 -19q-1 -9 -4 -14q-20 -6 -32 -6t-18 3q-7 4 -10 10q-5 12 -5.5 21t1.5 15q2 7 5 12q5 7 15 9t20 1q11 -1 24 -4z" />
    <glyph glyph-name="j" unicode="j" horiz-adv-x="278" 
d="M170 409v-196v-47q0 -20 -1 -41.5t-2 -37.5q-8 -91 -41 -168q-14 -33 -34.5 -65t-49 -59.5t-66 -47.5t-85.5 -27q-16 -1 -12 3q1 2 6 4q43 18 75.5 43t56.5 53.5t40.5 59.5t26.5 61q24 70 25 145v124v196q13 2 25 6q10 3 20.5 8t15.5 13v-27zM168 639q4 -17 4.5 -28
t-0.5 -19q-1 -9 -4 -14q-20 -6 -32 -6t-18 3q-7 4 -10 10q-5 12 -5.5 21t1.5 15q2 7 5 12q5 7 15 9t20 1q11 -1 24 -4z" />
    <glyph glyph-name="k" unicode="k" 
d="M388 0l-178 209q1 0 -3 -0.5t-11 -1t-16 -0.5t-17 2v-209h-61v710q2 1 9.5 1t17 2t19 7t15.5 16v-473q20 0 40.5 1.5t40.5 9.5q54 23 89 44.5t56 39.5q25 20 38 40q8 4 8 -4q0 -4 -1 -9q-5 -23 -17 -41.5t-23 -32.5q-14 -16 -29 -28q-20 -15 -42 -29t-52 -25l189 -229
h-72z" />
    <glyph glyph-name="l" unicode="l" horiz-adv-x="278" 
d="M168 0h-60v710q11 -1 30.5 5.5t29.5 22.5v-738z" />
    <glyph glyph-name="m" unicode="m" horiz-adv-x="834" 
d="M738 343q0 -10 0.5 -30t0.5 -46.5v-56v-59.5q0 -70 -1 -151h-59v192q0 41 -1 76q-2 30 -4.5 58t-9.5 38q-5 8 -14.5 12t-20.5 4.5t-23 -2t-22 -7.5q-13 -5 -31 -12t-37 -15t-36.5 -15t-30.5 -12v-317h-60v192q0 41 -2 76q-2 30 -5 57.5t-9 38.5q-11 17 -34 17.5
t-46 -10.5q-13 -5 -30 -12t-35.5 -15t-37 -15t-33.5 -12v-317h-60v412q16 0 32 3.5t28 23.5v-96q15 5 32.5 13t35 16.5t34 17t30.5 14.5q13 5 21 8.5t15 5.5t16 3.5t24 3.5q28 0 44.5 -11t24.5 -25t10.5 -27.5t2.5 -18.5q9 2 28 10t40 18t40.5 19.5t29.5 14.5q20 8 34.5 13
t36.5 8q30 0 46.5 -13.5t24.5 -29.5t9.5 -29t1.5 -11z" />
    <glyph glyph-name="n" unicode="n" 
d="M456 0h-60v189q1 42 0 78q-1 30 -4 58.5t-11 38.5q-10 16 -33 16t-46 -9q-13 -5 -30.5 -12t-36 -15t-37 -15t-33.5 -12v-317h-60v411q42 0 60 28v-95q15 5 33.5 13t37 16.5t36 17t30.5 14.5q17 6 34.5 12t37.5 9q31 0 47.5 -13.5t24.5 -30.5q9 -19 10 -44v-338z" />
    <glyph glyph-name="o" unicode="o" horiz-adv-x="500" 
d="M426 403q19 -86 21.5 -157t-2.5 -122q-5 -60 -19 -108q-61 -17 -108.5 -23.5t-84 -5.5t-63 7t-44.5 15q-43 21 -57 59q-18 54 -19 106.5t4 94.5q6 49 21 94q9 24 28.5 38.5t46 22t57 8.5t61.5 -1q72 -5 158 -28zM385 56q8 25 12 66q3 35 1.5 91t-13.5 137q-64 17 -118 24
q-23 3 -46 4t-42.5 -2t-34.5 -10.5t-21 -20.5q-10 -43 -14 -90q-3 -40 0 -88t21 -93q12 -19 44 -29q27 -8 77 -8.5t134 19.5z" />
    <glyph glyph-name="p" unicode="p" 
d="M165 -271h-60v680q62 20 123 26q26 3 54 2.5t56 -5t54.5 -14.5t49.5 -28q12 -10 19 -31t10.5 -47t3.5 -54t-2 -51.5t-5 -40t-7 -19.5q-10 -15 -44 -35q-29 -17 -88.5 -42t-163.5 -58v-283zM165 59q91 35 140.5 57.5t72.5 35.5q26 15 30 22q8 35 7 67t-6 56q-5 28 -14 52
q-35 28 -75 35.5t-75 5.5q-40 -3 -80 -15v-316z" />
    <glyph glyph-name="q" unicode="q" 
d="M419 12q-107 33 -166 58t-88 42q-33 20 -41 35q-4 3 -7 19t-5 39.5t-2 51.5t3.5 54t10.5 47t19 31q23 18 49.5 28t54.5 14.5t56 5t54 -2.5q61 -6 122 -25v-679h-60v282zM177 173q4 -7 30 -22q23 -13 72 -34.5t140 -56.5v315q-39 11 -79 14q-35 1 -75.5 -6t-75.5 -35
q-12 -24 -17 -52q-5 -24 -5.5 -56t10.5 -67z" />
    <glyph glyph-name="r" unicode="r" horiz-adv-x="370" 
d="M281 370q13 -10 16.5 -16.5t1 -9.5t-9.5 -3.5t-14 2.5q-23 10 -42 12t-33.5 0t-24.5 -6l-15 -6v-343h-60v410q15 0 32.5 4.5t27.5 15.5v-34q15 5 29.5 10t24.5 10h7q10 -5 27.5 -18t32.5 -28z" />
    <glyph glyph-name="s" unicode="s" horiz-adv-x="424" 
d="M74 375q11 21 28.5 33.5t38.5 19t44 7.5t45 -1q52 -5 111 -25q10 -9 5 -12.5t-15 -3.5q-11 -1 -29 2q-54 8 -87 5t-52 -11q-22 -9 -31 -23q-8 -23 -8 -41t3 -31q4 -15 11 -27q47 -11 84 -20.5t63 -16.5q31 -8 54 -15q26 -61 24.5 -101.5t-14.5 -65.5q-15 -29 -43 -46
q-25 -10 -48 -13t-43.5 -2t-39 6t-33.5 12q-36 16 -65 42q-12 15 -5.5 24.5t12.5 4.5q4 -5 9 -9.5t10 -7.5q5 -4 11 -7q57 -29 93 -31t57 8q25 11 37 36q8 24 7 44.5t-6 35.5q-5 18 -15 31q-42 9 -78 19t-62 18q-31 10 -56 19q-17 27 -21.5 53t-3.5 46q1 24 8 44z" />
    <glyph glyph-name="t" unicode="t" horiz-adv-x="333" 
d="M197 256q-2 -57 2 -107q1 -21 3.5 -43t6 -41.5t9 -34.5t13.5 -24l9 -12q2 -4 -0.5 -5t-15.5 4q-26 16 -45 50q-17 29 -30.5 80t-13.5 133v149h-94v41h94v256q15 0 33 6.5t29 20.5v-283h94v-41h-94v-149z" />
    <glyph glyph-name="u" unicode="u" 
d="M393 411q15 0 30 6t30 22v-439h-60v68q-1 0 -23 -8.5t-47.5 -19t-46 -19t-18.5 -7.5q-1 -1 -10.5 -4t-22 -6.5t-24.5 -6.5t-17 -3q-31 -3 -47 9.5t-24 28.5q-9 18 -10 44v335h60v-181v-15v-32t0.5 -41t2 -41.5t4 -34.5t6.5 -19q19 -16 48.5 -12.5t61.5 15.5t61 28t46 24
v309v0z" />
    <glyph glyph-name="v" unicode="v" horiz-adv-x="500" 
d="M274 0h-59l-159 363q15 5 28.5 18.5t18.5 28.5q5 -13 7.5 -19t6 -15t10 -25.5t20.5 -50t37 -87.5t60 -138l138 335h57z" />
    <glyph glyph-name="w" unicode="w" horiz-adv-x="722" 
d="M683 411l-161 -411h-54q-27 61 -49 112q-9 22 -18.5 43.5t-18 40.5t-14.5 33t-8 20l-108 -249h-61l-154 357q15 5 23 13t12 16.5t4.5 15.5t0.5 9q1 -1 8 -16.5t18 -39.5t24 -54t27 -61q32 -74 71 -166l95 236q-8 13 -16.5 26t-17.5 24.5t-18 19.5t-16 11q-8 3 -12 7
q-3 2 -2 4.5t14 2.5q30 -5 62 -28q27 -20 60.5 -61t66.5 -114l54 -128l135 337h53z" />
    <glyph glyph-name="x" unicode="x" horiz-adv-x="500" 
d="M425 390q-15 -5 -34.5 -22.5t-39 -40.5t-37.5 -48t-31 -45l142 -234h-67l-111 181l-118 -181h-61l150 228l-109 182h68l80 -128q38 48 69 74t53 38q26 14 46 16q10 -3 11 -6.5t-1 -6.5q-3 -4 -10 -7z" />
    <glyph glyph-name="y" unicode="y" horiz-adv-x="500" 
d="M299 1q-10 -35 -28.5 -78t-49 -82t-75 -69t-106.5 -40q-9 0 -5 6q2 3 5 7q50 20 85 51t58.5 66.5t36.5 71.5t20 66l-159 364q10 4 15.5 6.5t10 6.5t9.5 11.5t14 20.5q0 -2 1 -5.5t6 -14.5t13.5 -31.5t24.5 -56.5t39 -91t56 -134l143 334h53z" />
    <glyph glyph-name="z" unicode="z" horiz-adv-x="444" 
d="M411 410l-256 -352h79q48 -5 79 -15t50 -21q22 -12 35 -27q2 -11 0.5 -13.5t-4.5 -0.5q-4 2 -9 7q-11 10 -22 11t-31 1h-289l255 356h-208h-27q0 20 -6 32t-21 22h375z" />
    <glyph glyph-name="braceleft" unicode="{" horiz-adv-x="390" 
d="M316 -217q7 -7 9 -11t-1 -7t-16 -3q-49 13 -88 44q-17 13 -32.5 31.5t-27.5 43t-19.5 56t-7.5 71.5v111q0 27 -2 48t-11 36t-27.5 25t-51.5 17q33 7 51.5 17t27.5 25t11 36t2 48v111q0 39 7.5 70.5t19.5 56.5t27.5 43.5t32.5 31.5q39 31 88 44q13 0 16 -3.5t1 -7.5
t-9 -10q-48 -26 -73 -65t-35 -74q-12 -42 -12 -86v-94q0 -31 -2 -55t-9 -41.5t-21 -29t-37 -17.5q23 -6 37 -17.5t21 -28.5t9 -40.5t2 -54.5v-96q0 -45 12 -86q11 -36 35.5 -74.5t72.5 -64.5z" />
    <glyph glyph-name="bar" unicode="|" horiz-adv-x="222" 
d="M140 -249h-60v973q11 -1 30.5 5.5t29.5 22.5v-1001z" />
    <glyph glyph-name="braceright" unicode="}" horiz-adv-x="389" 
d="M68 -217q47 26 72 64.5t36 74.5q12 41 12 86v96q0 31 2 54.5t9 40.5t21 28.5t37 17.5q-23 6 -37 17.5t-21 29t-9 41.5t-2 55v94q0 44 -12 86q-5 18 -14 37t-22 37t-30.5 35t-41.5 30q-7 6 -9 10t0.5 7.5t16.5 3.5q48 -13 87 -44q16 -13 32 -31.5t28.5 -43.5t20 -56.5
t7.5 -70.5v-111q0 -27 2 -48t11 -36t27.5 -25t51.5 -17q-33 -7 -51.5 -17t-27.5 -25t-11 -36t-2 -48v-111q0 -40 -7.5 -71.5t-20 -56t-28.5 -43t-32 -31.5q-39 -31 -87 -44q-14 0 -16.5 3t-0.5 7t9 11z" />
    <glyph glyph-name="asciitilde" unicode="~" horiz-adv-x="600" 
d="M104 224q-16 -11 -22.5 -9.5t-8.5 8.5q-3 8 0 21q14 25 32.5 40t39 21.5t42 7t41.5 -2.5q48 -8 98 -35q42 -26 74 -25t55 14q26 14 45 42q11 7 18 6.5t10 -5.5t3 -11.5t-1 -10.5q-14 -31 -31.5 -50t-36.5 -29t-39 -12.5t-38 -0.5q-43 4 -89 31q-53 23 -86.5 27
t-54.5 -0.5t-32 -13.5t-19 -13z" />
    <glyph glyph-name="exclamdown" unicode="&#xa1;" horiz-adv-x="388" 
d="M218 292h-50v-390q-1 -31 4.5 -55.5t15 -43.5t22 -33t25.5 -24q31 -23 71 -31q10 0 12.5 1.5t0.5 3.5q-2 3 -8 6q-39 23 -58.5 52.5t-27.5 57.5q-9 32 -7 66v390zM233 366q-16 -4 -30 -5q-12 -1 -25 1.5t-20 11.5q-5 6 -7 15q-2 8 -1.5 19.5t6.5 27.5q3 8 13 12q8 4 23 4
t41 -8q3 -7 5 -18q3 -22 -5 -60z" />
    <glyph glyph-name="florin" unicode="&#x192;" 
d="M429 736q13 0 16 -3.5t1 -7.5t-9 -10q-48 -26 -73 -65t-35 -74q-12 -42 -12 -86v-69h98v-35h-98v-136.5t-0.5 -85t-1 -49t-1.5 -28.5q-9 -91 -42 -168q-14 -33 -34.5 -65t-49 -59.5t-66.5 -47.5t-86 -27q-16 -1 -12 3q1 2 6 4q43 18 75.5 43t56.5 53.5t40.5 59.5t26.5 61
q24 70 25 145v297h-98v35h98v69q0 39 7.5 70.5t19.5 56.5t27.5 43.5t32.5 31.5q39 31 88 44z" />
    <glyph glyph-name="section" unicode="&#xa7;" 
d="M454 211q0 22 -9.5 38.5t-24.5 30t-33 23.5t-35 18l-160 79q-13 -8 -26.5 -23.5t-25 -33t-19.5 -34t-9 -26.5q-2 -15 1 -26.5t10.5 -21t17.5 -16.5t21 -13l219 -116q13 11 26 24.5t23.5 29t17 32.5t6.5 35zM408 75q11 -7 16.5 -11t9.5 -6q4 -3 6 -4q11 -50 12.5 -89.5
t-3.5 -69t-16 -51t-24 -35.5q-31 -34 -77 -43q-59 -13 -98 -2t-62 28q-27 20 -43 50q-7 24 -3 27t12 -3q9 -7 22 -24q35 -38 71.5 -45t65.5 1q34 9 65 32q11 25 14.5 54t2.5 55q-1 30 -5 59q-76 36 -127 68t-83 55q-37 27 -59 51q-29 42 -28.5 81.5t15.5 71.5t35.5 54.5
t32.5 31.5q-17 10 -26 14q-6 3 -11 5q-11 47 -12.5 84t4 65.5t16.5 49t24 35.5q31 34 77 46q56 16 94.5 6t62.5 -29q28 -22 46 -55q3 -18 -1.5 -20t-12.5 3q-9 5 -21 19q-45 38 -81 45t-62 -1q-31 -9 -55 -33q-11 -26 -14.5 -54t-2.5 -51q1 -27 5 -54q86 -40 139.5 -73
t83.5 -57q35 -28 52 -52q27 -42 25.5 -80t-16 -68t-34.5 -51t-32 -30z" />
    <glyph glyph-name="quotesingle" unicode="'" horiz-adv-x="278" 
d="M153 708q20 -29 31 -56t14.5 -51t1.5 -45.5t-7 -39.5q-12 -42 -41 -77q-10 -7 -13 -6t-4 5t1 12q21 43 19.5 84t-12.5 72.5t-23 50.5l-12 19q-6 8 -6 19.5t11 19.5q11 7 22 5t18 -12z" />
    <glyph glyph-name="quotedblleft" unicode="&#x201c;" horiz-adv-x="500" 
d="M221 443q-36 -18 -73 -7.5t-57 44.5t-13.5 89.5t57.5 127.5q7 8 12 11t9 5t7 1q5 -3 1 -13q-2 -4 -6 -10q-5 -8 -14.5 -33t-14.5 -53t-3 -52t20 -30q26 8 41 8t23 -4q10 -4 13 -12q6 -16 6.5 -29t-1.5 -23q-3 -11 -7 -20zM415 443q-36 -18 -73 -7.5t-57 44.5t-13.5 89.5
t57.5 127.5q7 8 12 11t9 5t7 1q5 -3 1 -13q-2 -4 -6 -10q-5 -8 -14.5 -33t-14.5 -53t-3 -52t20 -30q26 8 41 8t23 -4q10 -4 13 -12q6 -16 6.5 -29t-1.5 -23q-3 -11 -7 -20z" />
    <glyph glyph-name="quotedblright" unicode="&#x201d;" horiz-adv-x="500" 
d="M278 711q36 18 73 7.5t57 -44.5t13.5 -89.5t-57.5 -127.5q-7 -8 -12 -11t-9 -5t-7 -1q-4 2 -3.5 5.5t2.5 7.5t6 10q5 8 14.5 33t14.5 53t3 52t-20 30q-26 -8 -41 -8t-23 4q-10 4 -13 12q-6 16 -6.5 29t1.5 23q2 11 7 20zM84 711q36 18 73 7.5t57 -44.5t13.5 -89.5
t-57.5 -127.5q-7 -8 -12 -11t-9 -5t-7 -1q-4 2 -3.5 5.5t2.5 7.5t6 10q5 8 14.5 33t14.5 53t3 52t-20 30q-26 -8 -41 -8t-23 4q-10 4 -13 12q-6 16 -6.5 29t1.5 23q2 11 7 20z" />
    <glyph glyph-name="perthousand" unicode="&#x2030;" horiz-adv-x="1000" 
d="M183 -22h-62q57 116 102.5 212.5t85 175t76.5 139.5t76.5 104t85 69t102.5 36q13 1 17 -1t-0.5 -6.5t-24.5 -14.5q-36 -16 -70 -42q-30 -23 -63.5 -60.5t-62.5 -94.5zM272 629q1 -11 3 -26q3 -26 3 -72q0 -51 -3 -76q-2 -15 -3 -25q-13 -46 -39 -63t-59 -17
q-28 1 -46 10.5t-29 20.5q-12 13 -19 29v121v118q7 17 19 30q11 11 29 21t46 10q33 0 59 -16.5t39 -64.5zM234 444q8 42 7 85.5t-7 86.5q-3 20 -10 35q-6 13 -18 23t-32 9q-20 0 -33 -5.5t-21 -31.5v-229q8 -26 21 -33.5t33 -7.5q20 -2 32 9t18 24q7 15 10 35zM599 265
q1 -11 3 -26q3 -26 3 -72q0 -51 -3 -76q-2 -15 -3 -25q-13 -46 -39 -63t-59 -17q-28 1 -46 10.5t-29 20.5q-12 13 -19 29v121v118q7 17 19 30q11 11 29 21t46 10q33 0 59 -16.5t39 -64.5zM561 80q8 41 7.5 85.5t-7.5 86.5q-3 20 -10 35q-6 13 -18 23t-32 9q-20 0 -33 -5.5
t-21 -31.5v-229q8 -26 21 -33.5t33 -7.5q20 -2 32 9t18 24q7 15 10 35zM913 265q1 -11 3 -26q3 -26 3 -72q0 -51 -3 -76q-2 -15 -3 -25q-13 -46 -39 -63t-59 -17q-28 1 -46 10.5t-29 20.5q-12 13 -19 29v121v118q7 17 19 30q11 11 29 21t46 10q33 0 59 -16.5t39 -64.5z
M875 80q8 41 7.5 85.5t-7.5 86.5q-3 20 -10 35q-6 13 -18 23t-32 9q-20 0 -33 -5.5t-21 -31.5v-229q8 -26 21 -33.5t33 -7.5q20 -2 32 9t18 24q7 15 10 35z" />
    <glyph glyph-name="questiondown" unicode="&#xbf;" horiz-adv-x="500" 
d="M291 -273q-49 -9 -85.5 1t-60.5 27q-29 18 -49 46q-1 64 -1 103.5t1 62.5q0 26 1 38q93 59 136.5 108.5t58.5 85.5q18 42 9 76q0 15 3.5 18t8.5 0q5 -4 13 -13q8 -32 5.5 -60.5t-12 -54.5t-24.5 -48.5t-31 -41.5q-39 -44 -94 -79q-2 -38 -2.5 -71t0.5 -57q1 -29 2 -52
q7 -17 22 -27.5t26 -13.5q44 -14 74.5 -5.5t50.5 23.5q23 18 37 45q6 9 10.5 6.5t5 -12.5t-4 -25t-17 -30.5t-32.5 -29t-51 -20.5zM272 356q-5 23 -6 38t1 26t5 20q28 8 44 8.5t25 -3.5q10 -4 14 -13q6 -17 6.5 -30t-1.5 -21q-3 -10 -7 -16q-8 -10 -21 -12.5t-27 -1.5
q-16 1 -33 5z" />
    <glyph glyph-name="grave" unicode="`" horiz-adv-x="278" 
d="M216 516h-24l-177 115q11 16 13.5 27t-2.5 27z" />
    <glyph glyph-name="acute" unicode="&#xb4;" horiz-adv-x="278" 
d="M254 685q-5 -16 -2.5 -27t13.5 -27l-177 -115h-24z" />
    <glyph glyph-name="AE" unicode="&#xc6;" horiz-adv-x="1000" 
d="M460 704h358q38 0 60.5 4.5t34.5 9.5q14 6 19 14q8 2 9.5 -0.5t0.5 -7.5t-4 -13q-17 -25 -45 -37t-55 -17q-32 -6 -67 -6h-195v-262h209v-47h-209v-289h196q35 0 67 -6q27 -5 55 -17.5t45 -36.5q3 -8 4 -13t-0.5 -8t-9.5 0q-5 8 -19 14q-12 5 -34.5 9.5t-60.5 4.5h-343
v206h-223l-115 -206h-81zM476 257v344l-197 -344h197z" />
    <glyph glyph-name="Oslash" unicode="&#xd8;" horiz-adv-x="722" 
d="M641 665q35 -149 40 -264.5t-4 -195.5q-11 -93 -36 -163q-126 -39 -216 -50t-151 -4.5t-97.5 25t-55.5 38.5l-60 -72v1h-14l66 79q-7 8 -11 14.5t-6 11.5q-3 6 -4 11q-23 57 -34.5 109t-15.5 99.5t-1 89t9 76.5q14 82 48 148q21 44 63 66.5t94.5 30t110 3.5t109 -13
t92.5 -19.5t60 -16.5l33 40q5 0 7.5 -1t10.5 4l-39 -46q1 -1 2 -1zM165 613q-37 -69 -53 -150q-7 -35 -10.5 -75.5t0.5 -86t16 -95t35 -100.5l443 527q-10 2 -41 8.5t-73 13t-90.5 10.5t-93 1t-80.5 -15t-53 -38zM604 72q0 6 10.5 45t17.5 108.5t3 169t-33 227.5l-444 -527
l2 -4q36 -28 98 -41q26 -6 60.5 -9t77 -1.5t94.5 9t114 23.5z" />
    <glyph glyph-name="ae" unicode="&#xe6;" horiz-adv-x="722" 
d="M585 9q10 2 10 -2q0 -2 -3.5 -7t-16.5 -7q-41 -6 -81 -5q-34 1 -71 8t-65 28q-47 -15 -97 -25.5t-94 -11.5t-78.5 10t-51.5 38q-7 17 -10 38q-2 17 -1.5 40.5t11.5 49.5q24 20 62 41q32 18 83.5 39.5t125.5 42.5q-1 40 -20 71q-8 13 -21.5 25t-33 20t-46 12t-61.5 0
q-4 -2 -8 -2q-7 -1 -14 2q0 5 8.5 8.5t19.5 5.5q34 5 67 5q29 0 61 -5.5t58 -21.5q3 1 27 6t59 10.5t76 9t78.5 1t65.5 -13.5t38 -34q9 -19 13 -39q3 -18 1.5 -40.5t-14.5 -48.5q-22 -18 -58 -37q-31 -17 -81.5 -37.5t-124.5 -40.5q2 -43 20 -75q8 -14 20.5 -26t31.5 -21
t44.5 -13t60.5 0zM104 48q18 -20 52 -22.5t68 2.5q40 6 84 20v197q-54 -21 -94.5 -40.5t-67.5 -34.5q-33 -18 -55 -34q-8 -18 -7 -34t6 -28q5 -14 14 -26zM398 176q54 20 94.5 39.5t67.5 34.5q32 18 55 34q8 18 7 34t-6 28q-5 14 -15 27q-20 19 -54.5 22t-67.5 -2
q-39 -6 -81 -20v-197z" />
    <glyph glyph-name="oe" unicode="&#x153;" horiz-adv-x="778" 
d="M632 7l10 2q10 2 10 -2q0 -2 -3.5 -7t-16.5 -7q-44 -6 -84 -5q-35 1 -70.5 8.5t-58.5 28.5q-61 -20 -109 -28.5t-84.5 -9t-63.5 5t-46 14.5q-44 21 -59 61q-18 54 -19 106.5t4 94.5q6 49 21 94q11 31 40 46.5t66 21.5t77.5 3.5t75.5 -7.5t59.5 -10.5t29.5 -7.5
q10 2 34.5 7.5t55.5 10t65.5 7t65.5 -1t54.5 -14.5t32.5 -33q9 -19 13 -39q3 -18 1.5 -40.5t-14.5 -48.5q-22 -18 -58 -37q-31 -17 -81.5 -37.5t-124.5 -40.5q2 -43 20 -75q8 -14 20.5 -26t31.5 -21t44.5 -13t60.5 0zM373 56q8 25 12 66q3 35 1.5 91t-13.5 137
q-64 17 -118 24q-23 3 -46 4t-42.5 -2t-34.5 -10.5t-21 -20.5q-10 -43 -14 -90q-3 -40 0 -88t21 -93q12 -19 44 -29q27 -8 77 -8.5t134 19.5zM455 176q54 20 94.5 39.5t67.5 34.5q32 18 55 34q8 18 7 34t-6 28q-5 14 -15 27q-20 19 -54.5 22t-67.5 -2q-39 -6 -81 -20v-197z
" />
    <glyph glyph-name="trademark" unicode="&#x2122;" horiz-adv-x="990" 
d="M322 300h-55v364h-134q3 16 -3 26.5t-8 12.5h279q21 0 33.5 2.5t19.5 5.5q8 4 11 8q4 2 5.5 -0.5t0.5 -4.5q-1 -4 -3 -7q-10 -14 -25.5 -22t-30.5 -13q-18 -5 -38 -8h-52v-364zM503 704h61l116 -311q4 10 12 29t18 42.5t21 50.5l22 54q26 62 56 135h57v-404h-45v344
l-94 -229q-9 -22 -19.5 -36t-18.5 -22q-10 -10 -19 -14q-12 -6 -18 -6q-4 -1 -7 0q-13 0 -11 4q1 2 4 5q8 2 11 4t5 4q2 3 2 6l-108 284v-344h-45v404z" />
    <glyph glyph-name="plusminus" unicode="&#xb1;" horiz-adv-x="600" 
d="M270 506h60v-174h223v-60h-223v-174h-60v174h-223v60h223v174zM553 0h-479q0 20 -6 32t-21 22h506v-54z" />
    <glyph glyph-name="divide" unicode="&#xf7;" horiz-adv-x="600" 
d="M553 226h-453h-27q0 20 -6 32t-21 22h507v-54zM351 99q7 -28 8 -47t-1 -32q-2 -15 -7 -24q-34 -11 -53.5 -11t-30.5 5q-12 5 -17 16q-8 20 -8.5 35.5t1.5 25.5q3 11 9 20q10 12 26 15.5t33 2.5q18 -1 40 -6zM351 514q7 -28 8 -47t-1 -32q-2 -15 -7 -24q-34 -11 -53.5 -11
t-30.5 5q-12 5 -17 16q-8 20 -8.5 35.5t1.5 25.5q3 11 9 20q10 12 26 15.5t33 2.5q18 -1 40 -6z" />
    <glyph glyph-name="registered" unicode="&#xae;" horiz-adv-x="800" 
d="M400 720q76 0 143.5 -29t117 -79t78.5 -117t29 -143t-29 -143t-78.5 -117t-117 -79t-143.5 -29t-143 29t-117 79t-79 117t-29 143t29 143t79 117t117 79t143 29zM319 372q6 -1 13 -1h32q19 0 41.5 1t42.5 5q9 3 17 11q6 7 11.5 19t5.5 32q0 13 -2.5 28t-8.5 33
q-20 2 -41 4q-18 2 -41 3.5t-46 1.5h-24v-137zM473 200q11 -12 19.5 -18.5t14.5 -10.5q7 -4 12 -5q11 -4 18 -3t7 -4q0 -3 -6 -4t-13.5 -1.5t-14.5 -0.5h-9q-9 0 -16 1t-12 3q-6 2 -11 4q-5 1 -11.5 6t-12.5 11t-11 12t-8 9l-99 131l-1 1v-171h-54v392q9 0 20.5 0.5
t23.5 0.5h23h18q45 0 76.5 -2.5t51.5 -5.5q23 -4 38 -8q3 -12 6 -27.5t5 -31.5t3 -30t1 -22q0 -18 -3.5 -31.5t-8.5 -21.5q-5 -11 -11 -17q-8 -9 -23.5 -14.5t-34 -8t-38.5 -3t-36 -0.5zM400 672q-65 0 -122 -26t-100 -69.5t-67.5 -102t-24.5 -122.5q0 -65 24.5 -123
t67.5 -102t100 -69.5t122 -25.5t122 25.5t100 69.5t67.5 102t24.5 123q0 64 -24.5 122.5t-67.5 102t-100 69.5t-122 26z" />
    <glyph glyph-name="copyright" unicode="&#xa9;" horiz-adv-x="800" 
d="M547 199q3 -2 -0.5 -8.5t-16.5 -12.5q-45 -14 -80 -19.5t-62 -5.5t-46.5 5t-32.5 12q-32 17 -42 47q-24 62 -26.5 114.5t4.5 90.5q8 45 26 82q15 32 49.5 43t74 10.5t76.5 -9t58 -15.5q11 -2 13 -6t1 -7t-7 -2.5t-14 1.5q-11 1 -40 4t-61.5 3t-60.5 -6.5t-36 -22.5
q-18 -36 -26 -79q-7 -37 -3.5 -87.5t29.5 -110.5q9 -16 34 -25q21 -8 59.5 -9.5t103.5 12.5q18 7 26 1zM400 720q76 0 143.5 -29t117 -79t78.5 -117t29 -143t-29 -143t-78.5 -117t-117 -79t-143.5 -29t-143 29t-117 79t-79 117t-29 143t29 143t79 117t117 79t143 29z
M400 672q-65 0 -122 -26t-100 -69.5t-67.5 -102t-24.5 -122.5q0 -65 24.5 -123t67.5 -102t100 -69.5t122 -25.5t122 25.5t100 69.5t67.5 102t24.5 123q0 64 -24.5 122.5t-67.5 102t-100 69.5t-122 26z" />
    <glyph glyph-name="Aacute" unicode="&#xc1;" horiz-adv-x="667" 
d="M320 720h11h-11zM400 916q11 11 20 18t23 7q11 0 21.5 -9.5t10.5 -24.5t-10 -23.5t-30 -21.5l-145 -90h-35zM593 19q14 -8 18.5 -12.5t4.5 -7.5t-3 -4t-5 -1q-7 1 -13 3.5t-11 4.5q-6 3 -11 5q-29 15 -52.5 43t-40.5 55q-20 32 -37 67l-14 34h-244l-68 -206h-62l240 720
h28l178 -528q20 -59 36 -93t29 -52q14 -21 27 -28zM416 257l-107 327l-109 -327h216z" />
    <glyph glyph-name="Acircumflex" unicode="&#xc2;" horiz-adv-x="667" 
d="M306 941h56l122 -169h-33l-117 106l-117 -106h-33zM593 19q14 -8 18.5 -12.5t4.5 -7.5t-3 -4t-5 -1q-7 1 -13 3.5t-11 4.5q-6 3 -11 5q-29 15 -52.5 43t-40.5 55q-20 32 -37 67l-14 34h-244l-68 -206h-62l240 720h28l178 -528q20 -59 36 -93t29 -52q14 -21 27 -28z
M416 257l-107 327l-109 -327h216z" />
    <glyph glyph-name="Adieresis" unicode="&#xc4;" horiz-adv-x="667" 
d="M428 882q18 0 31.5 -13.5t13.5 -31.5t-13.5 -31.5t-31.5 -13.5q-19 0 -32 13.5t-13 31.5t13 31.5t32 13.5zM240 882q18 0 31.5 -13.5t13.5 -31.5t-13.5 -31.5t-31.5 -13.5q-19 0 -32 13.5t-13 31.5t13 31.5t32 13.5zM593 19q14 -8 18.5 -12.5t4.5 -7.5t-3 -4t-5 -1
q-7 1 -13 3.5t-11 4.5q-6 3 -11 5q-29 15 -52.5 43t-40.5 55q-20 32 -37 67l-14 34h-244l-68 -206h-62l240 720h28l178 -528q20 -59 36 -93t29 -52q14 -21 27 -28zM416 257l-107 327l-109 -327h216z" />
    <glyph glyph-name="Agrave" unicode="&#xc0;" horiz-adv-x="667" 
d="M233 862q-20 13 -30 21.5t-10 23.5t10.5 24.5t21.5 9.5q14 0 23 -7t20 -18l145 -144h-35zM593 19q14 -8 18.5 -12.5t4.5 -7.5t-3 -4t-5 -1q-7 1 -13 3.5t-11 4.5q-6 3 -11 5q-29 15 -52.5 43t-40.5 55q-20 32 -37 67l-14 34h-244l-68 -206h-62l240 720h28l178 -528
q20 -59 36 -93t29 -52q14 -21 27 -28zM416 257l-107 327l-109 -327h216z" />
    <glyph glyph-name="Aring" unicode="&#xc5;" horiz-adv-x="667" 
d="M327 911q38 0 64 -26.5t26 -63.5t-26 -63.5t-64 -26.5t-64 26.5t-26 63.5t26 63.5t64 26.5zM327 881q-25 0 -42.5 -18t-17.5 -42t17.5 -42t42.5 -18t42.5 18t17.5 42t-17.5 42t-42.5 18zM593 19q14 -8 18.5 -12.5t4.5 -7.5t-3 -4t-5 -1q-7 1 -13 3.5t-11 4.5q-6 3 -11 5
q-29 15 -52.5 43t-40.5 55q-20 32 -37 67l-14 34h-244l-68 -206h-62l240 720h28l178 -528q20 -59 36 -93t29 -52q14 -21 27 -28zM416 257l-107 327l-109 -327h216z" />
    <glyph glyph-name="Atilde" unicode="&#xc3;" horiz-adv-x="667" 
d="M497 898q-6 -20 -15 -38t-22 -32.5t-31 -23t-40 -8.5q-20 0 -38.5 7t-35.5 17q-14 8 -30.5 16t-32.5 8q-21 0 -35 -14t-20 -34h-26q6 19 15 37.5t22 33t30.5 23t40.5 8.5q20 0 38.5 -7t35.5 -17q14 -8 30.5 -16t32.5 -8q21 0 35 14t20 34h26zM593 19q14 -8 18.5 -12.5
t4.5 -7.5t-3 -4t-5 -1q-7 1 -13 3.5t-11 4.5q-6 3 -11 5q-29 15 -52.5 43t-40.5 55q-20 32 -37 67l-14 34h-244l-68 -206h-62l240 720h28l178 -528q20 -59 36 -93t29 -52q14 -21 27 -28zM416 257l-107 327l-109 -327h216z" />
    <glyph glyph-name="Ccedilla" unicode="&#xc7;" horiz-adv-x="667" 
d="M610 58q5 -5 2.5 -11.5t-25.5 -17.5q-77 -23 -137.5 -33.5t-108.5 -11.5q-8 -6 -11.5 -13t-4.5 -14q-1 -8 1 -15q16 -4 38 -10t42 -11q23 -7 47 -14q6 -23 6 -41.5t-3 -32.5q-4 -17 -9 -30q-11 -14 -32.5 -20.5t-46.5 -7t-49.5 4t-42.5 13.5q-4 2 -8 6q-3 3 -5.5 6.5
t-2.5 7.5q2 1 15 -3q5 -2 13 -5q22 -8 43 -11q18 -2 37.5 0t33.5 16q5 5 9 14q3 8 5 20t1 30q-2 1 -23 6.5t-44 11.5q-28 7 -62 16v44q1 8 7.5 17t11.5 15q-67 3 -106 21t-60 39q-25 24 -34 54q-21 57 -32 109.5t-14.5 100.5t-1 90t8.5 77q14 83 46 150q18 38 53.5 59
t79 29.5t92.5 7t95 -8.5t85.5 -17t64.5 -18q20 -5 24.5 -9.5t2.5 -9.5t-13.5 -3t-26.5 4q-14 1 -45.5 4.5t-72.5 5.5t-86 2t-84.5 -5t-69 -17t-39.5 -32q-34 -72 -48 -156q-6 -36 -8.5 -78.5t2 -90t17.5 -99.5t37 -106q27 -28 79 -44q22 -7 52 -11.5t69 -4.5t87.5 5
t107.5 17q16 5 26 9.5t15 -0.5z" />
    <glyph glyph-name="Eacute" unicode="&#xc9;" horiz-adv-x="667" 
d="M400 916q11 11 20 18t23 7q11 0 21.5 -9.5t10.5 -24.5t-10 -23.5t-30 -21.5l-145 -90h-35zM124 704h302q38 0 60.5 4.5t34.5 9.5q14 6 19 14q8 2 9.5 -0.5t0.5 -7.5t-4 -13q-17 -25 -45 -37t-55 -17q-32 -6 -67 -6h-195v-262h209v-47h-209v-289h196q35 0 67 -6
q27 -5 55 -17.5t45 -36.5q3 -8 4 -13t-0.5 -8t-9.5 0q-5 8 -19 14q-12 5 -34.5 9.5t-60.5 4.5h-303v704z" />
    <glyph glyph-name="Ecircumflex" unicode="&#xca;" horiz-adv-x="667" 
d="M306 941h56l-28 -63zM124 704h302q38 0 60.5 4.5t34.5 9.5q14 6 19 14q8 2 9.5 -0.5t0.5 -7.5t-4 -13q-17 -25 -45 -37t-55 -17q-32 -6 -67 -6h-195v-262h209v-47h-209v-289h196q35 0 67 -6q27 -5 55 -17.5t45 -36.5q3 -8 4 -13t-0.5 -8t-9.5 0q-5 8 -19 14
q-12 5 -34.5 9.5t-60.5 4.5h-303v704z" />
    <glyph glyph-name="Edieresis" unicode="&#xcb;" horiz-adv-x="667" 
d="M428 882q18 0 31.5 -13.5t13.5 -31.5t-13.5 -31.5t-31.5 -13.5q-19 0 -32 13.5t-13 31.5t13 31.5t32 13.5zM240 882q18 0 31.5 -13.5t13.5 -31.5t-13.5 -31.5t-31.5 -13.5q-19 0 -32 13.5t-13 31.5t13 31.5t32 13.5zM124 704h302q38 0 60.5 4.5t34.5 9.5q14 6 19 14
q8 2 9.5 -0.5t0.5 -7.5t-4 -13q-17 -25 -45 -37t-55 -17q-32 -6 -67 -6h-195v-262h209v-47h-209v-289h196q35 0 67 -6q27 -5 55 -17.5t45 -36.5q3 -8 4 -13t-0.5 -8t-9.5 0q-5 8 -19 14q-12 5 -34.5 9.5t-60.5 4.5h-303v704z" />
    <glyph glyph-name="Egrave" unicode="&#xc8;" horiz-adv-x="667" 
d="M124 704h302q38 0 60.5 4.5t34.5 9.5q14 6 19 14q8 2 9.5 -0.5t0.5 -7.5t-4 -13q-17 -25 -45 -37t-55 -17q-32 -6 -67 -6h-195v-262h209v-47h-209v-289h196q35 0 67 -6q27 -5 55 -17.5t45 -36.5q3 -8 4 -13t-0.5 -8t-9.5 0q-5 8 -19 14q-12 5 -34.5 9.5t-60.5 4.5h-303
v704zM408 772h-24l-177 115q11 16 13.5 27t-2.5 27z" />
    <glyph glyph-name="Iacute" unicode="&#xcd;" horiz-adv-x="334" 
d="M233 916q11 11 20 18t23 7q11 0 21.5 -9.5t10.5 -24.5t-10 -23.5t-30 -21.5l-145 -90h-35zM137 704q23 0 35.5 4.5t17.5 10.5q6 7 7 16v-735h-60v704z" />
    <glyph glyph-name="Icircumflex" unicode="&#xce;" horiz-adv-x="334" 
d="M139 941h56l122 -169h-33l-117 106l-117 -106h-33zM137 704q23 0 35.5 4.5t17.5 10.5q6 7 7 16v-735h-60v704z" />
    <glyph glyph-name="Idieresis" unicode="&#xcf;" horiz-adv-x="334" 
d="M261 882q18 0 31.5 -13.5t13.5 -31.5t-13.5 -31.5t-31.5 -13.5q-19 0 -32 13.5t-13 31.5t13 31.5t32 13.5zM73 882q18 0 31.5 -13.5t13.5 -31.5t-13.5 -31.5t-31.5 -13.5q-19 0 -32 13.5t-13 31.5t13 31.5t32 13.5zM137 704q23 0 35.5 4.5t17.5 10.5q6 7 7 16v-735h-60
v704z" />
    <glyph glyph-name="Igrave" unicode="&#xcc;" horiz-adv-x="334" 
d="M137 704q23 0 35.5 4.5t17.5 10.5q6 7 7 16v-735h-60v704zM242 771h-24l-177 115q11 16 13.5 27t-2.5 27z" />
    <glyph glyph-name="Ntilde" unicode="&#xd1;" horiz-adv-x="722" 
d="M617 -8v712h-60v-559l-388 559h-66v-704h60v617l437 -625h17zM218 820q-11 -8 -15.5 -7t-6.5 6t0 15q20 36 50.5 44t59.5 3q33 -6 70 -25q29 -19 52 -17.5t39 10.5q18 11 32 29q8 5 12.5 4.5t7 -4t2.5 -8t-1 -7.5q-20 -44 -48.5 -56t-54.5 -9q-31 4 -63 22
q-38 16 -61.5 19t-38.5 -0.5t-22.5 -9.5t-13.5 -9z" />
    <glyph glyph-name="Oacute" unicode="&#xd3;" horiz-adv-x="722" 
d="M427 916q11 11 20 18t23 7q11 0 21.5 -9.5t10.5 -24.5t-10 -23.5t-30 -21.5l-145 -90h-35zM641 666q35 -149 40 -264.5t-4 -195.5q-11 -93 -36 -163q-93 -29 -166 -42.5t-129 -15t-96.5 6.5t-68.5 20q-66 29 -89 85q-23 57 -34.5 109t-15.5 99.5t-1 89t9 76.5
q14 82 48 148q18 37 50.5 58.5t74 31.5t88.5 11t94 -4q109 -11 236 -50zM604 73q0 6 11 45.5t17.5 110.5t2 172t-34.5 232q-102 24 -190 32q-38 3 -75.5 3.5t-71 -5t-59.5 -17t-39 -32.5q-38 -71 -54 -155q-7 -36 -9.5 -78t2 -88.5t17.5 -97t39 -103.5q36 -28 98 -41
q26 -6 60.5 -9t77 -1.5t94.5 9t114 23.5z" />
    <glyph glyph-name="Ocircumflex" unicode="&#xd4;" horiz-adv-x="722" 
d="M333 941h56l122 -169h-33l-117 106l-117 -106h-33zM641 666q35 -149 40 -264.5t-4 -195.5q-11 -93 -36 -163q-93 -29 -166 -42.5t-129 -15t-96.5 6.5t-68.5 20q-66 29 -89 85q-23 57 -34.5 109t-15.5 99.5t-1 89t9 76.5q14 82 48 148q18 37 50.5 58.5t74 31.5t88.5 11
t94 -4q109 -11 236 -50zM604 73q0 6 11 45.5t17.5 110.5t2 172t-34.5 232q-102 24 -190 32q-38 3 -75.5 3.5t-71 -5t-59.5 -17t-39 -32.5q-38 -71 -54 -155q-7 -36 -9.5 -78t2 -88.5t17.5 -97t39 -103.5q36 -28 98 -41q26 -6 60.5 -9t77 -1.5t94.5 9t114 23.5z" />
    <glyph glyph-name="Odieresis" unicode="&#xd6;" horiz-adv-x="722" 
d="M455 882q18 0 31.5 -13.5t13.5 -31.5t-13.5 -31.5t-31.5 -13.5q-19 0 -32 13.5t-13 31.5t13 31.5t32 13.5zM267 882q18 0 31.5 -13.5t13.5 -31.5t-13.5 -31.5t-31.5 -13.5q-19 0 -32 13.5t-13 31.5t13 31.5t32 13.5zM641 666q35 -149 40 -264.5t-4 -195.5
q-11 -93 -36 -163q-93 -29 -166 -42.5t-129 -15t-96.5 6.5t-68.5 20q-66 29 -89 85q-23 57 -34.5 109t-15.5 99.5t-1 89t9 76.5q14 82 48 148q18 37 50.5 58.5t74 31.5t88.5 11t94 -4q109 -11 236 -50zM604 73q0 6 11 45.5t17.5 110.5t2 172t-34.5 232q-102 24 -190 32
q-38 3 -75.5 3.5t-71 -5t-59.5 -17t-39 -32.5q-38 -71 -54 -155q-7 -36 -9.5 -78t2 -88.5t17.5 -97t39 -103.5q36 -28 98 -41q26 -6 60.5 -9t77 -1.5t94.5 9t114 23.5z" />
    <glyph glyph-name="Ograve" unicode="&#xd2;" horiz-adv-x="722" 
d="M435 772h-24l-177 115q11 16 13.5 27t-2.5 27zM641 666q35 -149 40 -264.5t-4 -195.5q-11 -93 -36 -163q-93 -29 -166 -42.5t-129 -15t-96.5 6.5t-68.5 20q-66 29 -89 85q-23 57 -34.5 109t-15.5 99.5t-1 89t9 76.5q14 82 48 148q18 37 50.5 58.5t74 31.5t88.5 11t94 -4
q109 -11 236 -50zM604 73q0 6 11 45.5t17.5 110.5t2 172t-34.5 232q-102 24 -190 32q-38 3 -75.5 3.5t-71 -5t-59.5 -17t-39 -32.5q-38 -71 -54 -155q-7 -36 -9.5 -78t2 -88.5t17.5 -97t39 -103.5q36 -28 98 -41q26 -6 60.5 -9t77 -1.5t94.5 9t114 23.5z" />
    <glyph glyph-name="Otilde" unicode="&#xd5;" horiz-adv-x="722" 
d="M524 898q-6 -20 -15 -38t-22 -32.5t-31 -23t-40 -8.5q-20 0 -38.5 7t-35.5 17q-14 8 -30.5 16t-32.5 8q-21 0 -35 -14t-20 -34h-26q6 19 15 37.5t22 33t30.5 23t40.5 8.5q20 0 38.5 -7t35.5 -17q14 -8 30.5 -16t32.5 -8q21 0 35 14t20 34h26zM641 666q35 -149 40 -264.5
t-4 -195.5q-11 -93 -36 -163q-93 -29 -166 -42.5t-129 -15t-96.5 6.5t-68.5 20q-66 29 -89 85q-23 57 -34.5 109t-15.5 99.5t-1 89t9 76.5q14 82 48 148q18 37 50.5 58.5t74 31.5t88.5 11t94 -4q109 -11 236 -50zM604 73q0 6 11 45.5t17.5 110.5t2 172t-34.5 232
q-102 24 -190 32q-38 3 -75.5 3.5t-71 -5t-59.5 -17t-39 -32.5q-38 -71 -54 -155q-7 -36 -9.5 -78t2 -88.5t17.5 -97t39 -103.5q36 -28 98 -41q26 -6 60.5 -9t77 -1.5t94.5 9t114 23.5z" />
    <glyph glyph-name="Uacute" unicode="&#xda;" horiz-adv-x="722" 
d="M427 916q11 11 20 18t23 7q11 0 21.5 -9.5t10.5 -24.5t-10 -23.5t-30 -21.5l-145 -90h-35zM97 704q20 0 32.5 4.5t18.5 10.5q7 7 9 16v-556q3 -30 13.5 -53t25.5 -39t33 -27t36 -17q43 -15 96 -14q40 -1 70.5 5t53 16.5t37.5 24t24 27.5q22 33 24 76v526h60v-526
q0 -38 -11.5 -66.5t-30.5 -49.5t-43.5 -34.5t-49.5 -22.5q-59 -21 -134 -22q-49 0 -86.5 8.5t-65 22t-47 31t-31.5 35.5q-30 43 -34 98v526z" />
    <glyph glyph-name="Ucircumflex" unicode="&#xdb;" horiz-adv-x="722" 
d="M333 941h56l122 -169h-33l-117 106l-117 -106h-33zM97 704q20 0 32.5 4.5t18.5 10.5q7 7 9 16v-556q3 -30 13.5 -53t25.5 -39t33 -27t36 -17q43 -15 96 -14q40 -1 70.5 5t53 16.5t37.5 24t24 27.5q22 33 24 76v526h60v-526q0 -38 -11.5 -66.5t-30.5 -49.5t-43.5 -34.5
t-49.5 -22.5q-59 -21 -134 -22q-49 0 -86.5 8.5t-65 22t-47 31t-31.5 35.5q-30 43 -34 98v526z" />
    <glyph glyph-name="Udieresis" unicode="&#xdc;" horiz-adv-x="722" 
d="M455 882q18 0 31.5 -13.5t13.5 -31.5t-13.5 -31.5t-31.5 -13.5q-19 0 -32 13.5t-13 31.5t13 31.5t32 13.5zM267 882q18 0 31.5 -13.5t13.5 -31.5t-13.5 -31.5t-31.5 -13.5q-19 0 -32 13.5t-13 31.5t13 31.5t32 13.5zM97 704q20 0 32.5 4.5t18.5 10.5q7 7 9 16v-556
q3 -30 13.5 -53t25.5 -39t33 -27t36 -17q43 -15 96 -14q40 -1 70.5 5t53 16.5t37.5 24t24 27.5q22 33 24 76v526h60v-526q0 -38 -11.5 -66.5t-30.5 -49.5t-43.5 -34.5t-49.5 -22.5q-59 -21 -134 -22q-49 0 -86.5 8.5t-65 22t-47 31t-31.5 35.5q-30 43 -34 98v526z" />
    <glyph glyph-name="Ugrave" unicode="&#xd9;" horiz-adv-x="722" 
d="M260 862q-20 13 -30 21.5t-10 23.5t10.5 24.5t21.5 9.5q14 0 23 -7t20 -18l145 -144h-35zM97 704q20 0 32.5 4.5t18.5 10.5q7 7 9 16v-556q3 -30 13.5 -53t25.5 -39t33 -27t36 -17q43 -15 96 -14q40 -1 70.5 5t53 16.5t37.5 24t24 27.5q22 33 24 76v526h60v-526
q0 -38 -11.5 -66.5t-30.5 -49.5t-43.5 -34.5t-49.5 -22.5q-59 -21 -134 -22q-49 0 -86.5 8.5t-65 22t-47 31t-31.5 35.5q-30 43 -34 98v526z" />
    <glyph glyph-name="aacute" unicode="&#xe1;" horiz-adv-x="500" 
d="M416 327q-4 26 -16 44.5t-29.5 30.5t-38.5 18.5t-42 9.5q-50 7 -111 -2q-11 -2 -19.5 -5.5t-8.5 -8.5q7 -3 14 -2q4 0 8 2q35 4 61.5 0t46 -12t33 -20t21.5 -25q19 -31 20 -71q-74 -21 -125.5 -42.5t-83.5 -39.5q-38 -21 -62 -41q-11 -26 -11.5 -49.5t1.5 -40.5
q3 -21 10 -38q18 -28 51 -38.5t72 -10t78.5 9.5t69.5 19v-15h61v327zM151 48q-9 12 -14 26q-5 12 -6 28t7 34q22 16 55 34q27 15 67.5 34.5t94.5 40.5v-197q-44 -14 -84 -20q-34 -5 -68 -2.5t-52 22.5zM366 721q-5 -16 -2.5 -27t13.5 -27l-177 -115h-24z" />
    <glyph glyph-name="acircumflex" unicode="&#xe2;" horiz-adv-x="500" 
d="M222 721h56l122 -169h-33l-117 106l-117 -106h-33zM416 0h-61v15q-30 -10 -69.5 -19t-78.5 -9.5t-72 10t-51 38.5q-7 17 -10 38q-2 17 -1.5 40.5t11.5 49.5q24 20 62 41q32 18 83.5 39.5t125.5 42.5q-1 40 -20 71q-8 13 -21.5 25t-33 20t-46 12t-61.5 0q-4 -2 -8 -2
q-7 -1 -14 2q0 5 8.5 8.5t19.5 5.5q61 9 111 2q21 -3 42 -9.5t38.5 -18.5t29.5 -30.5t16 -44.5v-327zM151 48q18 -20 52 -22.5t68 2.5q40 6 84 20v197q-54 -21 -94.5 -40.5t-67.5 -34.5q-33 -18 -55 -34q-8 -18 -7 -34t6 -28q5 -14 14 -26z" />
    <glyph glyph-name="adieresis" unicode="&#xe4;" horiz-adv-x="500" 
d="M196 658q5 -21 6 -36t-1 -24q-2 -11 -5 -18q-26 -8 -41.5 -8t-23.5 4q-10 4 -13 12q-6 15 -6.5 26.5t1.5 19.5q2 9 7 15q8 9 20 11.5t25 1.5q14 -1 31 -4zM384 658q5 -21 6 -36t-1 -24q-2 -11 -5 -18q-26 -8 -41.5 -8t-23.5 4q-10 4 -13 12q-6 15 -6.5 26.5t1.5 19.5
q2 9 7 15q8 9 20 11.5t25 1.5q14 -1 31 -4zM416 0h-61v15q-30 -10 -69.5 -19t-78.5 -9.5t-72 10t-51 38.5q-7 17 -10 38q-2 17 -1.5 40.5t11.5 49.5q24 20 62 41q32 18 83.5 39.5t125.5 42.5q-1 40 -20 71q-8 13 -21.5 25t-33 20t-46 12t-61.5 0q-4 -2 -8 -2q-7 -1 -14 2
q0 5 8.5 8.5t19.5 5.5q61 9 111 2q21 -3 42 -9.5t38.5 -18.5t29.5 -30.5t16 -44.5v-327zM151 48q18 -20 52 -22.5t68 2.5q40 6 84 20v197q-54 -21 -94.5 -40.5t-67.5 -34.5q-33 -18 -55 -34q-8 -18 -7 -34t6 -28q5 -14 14 -26z" />
    <glyph glyph-name="agrave" unicode="&#xe0;" horiz-adv-x="500" 
d="M416 0h-61v15q-30 -10 -69.5 -19t-78.5 -9.5t-72 10t-51 38.5q-7 17 -10 38q-2 17 -1.5 40.5t11.5 49.5q24 20 62 41q32 18 83.5 39.5t125.5 42.5q-1 40 -20 71q-8 13 -21.5 25t-33 20t-46 12t-61.5 0q-4 -2 -8 -2q-7 -1 -14 2q0 5 8.5 8.5t19.5 5.5q61 9 111 2
q21 -3 42 -9.5t38.5 -18.5t29.5 -30.5t16 -44.5v-327zM151 48q18 -20 52 -22.5t68 2.5q40 6 84 20v197q-54 -21 -94.5 -40.5t-67.5 -34.5q-33 -18 -55 -34q-8 -18 -7 -34t6 -28q5 -14 14 -26zM325 552h-24l-177 115q11 16 13.5 27t-2.5 27z" />
    <glyph glyph-name="aring" unicode="&#xe5;" horiz-adv-x="500" 
d="M250 701q38 0 64 -26.5t26 -63.5t-26 -63.5t-64 -26.5t-64 26.5t-26 63.5t26 63.5t64 26.5zM250 671q-25 0 -42.5 -18t-17.5 -42t17.5 -42t42.5 -18t42.5 18t17.5 42t-17.5 42t-42.5 18zM416 0h-61v15q-30 -10 -69.5 -19t-78.5 -9.5t-72 10t-51 38.5q-7 17 -10 38
q-2 17 -1.5 40.5t11.5 49.5q24 20 62 41q32 18 83.5 39.5t125.5 42.5q-1 40 -20 71q-8 13 -21.5 25t-33 20t-46 12t-61.5 0q-4 -2 -8 -2q-7 -1 -14 2q0 5 8.5 8.5t19.5 5.5q61 9 111 2q21 -3 42 -9.5t38.5 -18.5t29.5 -30.5t16 -44.5v-327zM151 48q18 -20 52 -22.5t68 2.5
q40 6 84 20v197q-54 -21 -94.5 -40.5t-67.5 -34.5q-33 -18 -55 -34q-8 -18 -7 -34t6 -28q5 -14 14 -26z" />
    <glyph glyph-name="atilde" unicode="&#xe3;" horiz-adv-x="500" 
d="M416 327q-4 26 -16 44.5t-29.5 30.5t-38.5 18.5t-42 9.5q-50 7 -111 -2q-11 -2 -19.5 -5.5t-8.5 -8.5q7 -3 14 -2q4 0 8 2q35 4 61.5 0t46 -12t33 -20t21.5 -25q19 -31 20 -71q-74 -21 -125.5 -42.5t-83.5 -39.5q-38 -21 -62 -41q-11 -26 -11.5 -49.5t1.5 -40.5
q3 -21 10 -38q18 -28 51 -38.5t72 -10t78.5 9.5t69.5 19v-15h61v327zM151 48q-9 12 -14 26q-5 12 -6 28t7 34q22 16 55 34q27 15 67.5 34.5t94.5 40.5v-197q-44 -14 -84 -20q-34 -5 -68 -2.5t-52 22.5zM108 595q-11 -8 -15.5 -7t-6.5 6t0 15q20 36 50.5 44t59.5 3
q33 -6 70 -25q29 -19 52 -17.5t39 10.5q18 11 32 29q8 5 12.5 4.5t7 -4t2.5 -8t-1 -7.5q-20 -44 -48.5 -56t-54.5 -9q-31 4 -63 22q-38 16 -61.5 19t-38.5 -0.5t-22.5 -9.5t-13.5 -9z" />
    <glyph glyph-name="ccedilla" unicode="&#xe7;" horiz-adv-x="444" 
d="M358 24q16 2 28 2q11 0 20 -2t9 -7q-3 -2 -8 -4q-9 -5 -34 -9q-20 -3 -43 -7q-20 -3 -45 -5.5t-52 -2.5q-14 -5 -19.5 -12.5t-7.5 -15.5q-2 -9 0 -19q16 -4 38 -10t42 -11q23 -7 47 -14q6 -23 6 -41.5t-3 -32.5q-4 -17 -9 -30q-11 -14 -32.5 -20.5t-46.5 -7t-49.5 4
t-42.5 13.5q-4 2 -8 6q-3 3 -5.5 6.5t-2.5 7.5q2 1 15 -3q5 -2 13 -5q22 -8 43 -11q18 -2 37.5 0t33.5 16q5 5 9 14q3 8 5 20t1 30q-2 1 -23 6.5t-44 11.5q-28 7 -62 16v44q2 12 10 22t15 16q-44 3 -82.5 16.5t-55.5 45.5q-6 21 -10 46q-4 21 -7 49t-3 60v8q0 32 3 60t7 49
q4 25 10 46q11 19 29.5 31.5t41.5 19.5t48.5 9.5t51.5 2.5q59 -1 128 -15q13 -2 21 -4.5t13 -4.5l8 -4q0 -6 -9 -8t-20 -2q-12 0 -28 2q-81 6 -127 -2t-69 -20q-27 -14 -35 -33q-11 -38 -12.5 -69.5t-1.5 -57.5q0 -32 2.5 -64.5t13.5 -70.5q8 -22 37 -36q25 -13 74.5 -20.5
t136.5 0.5z" />
    <glyph glyph-name="eacute" unicode="&#xe9;" horiz-adv-x="444" 
d="M292 7l10 2q10 2 10 -2q0 -2 -3.5 -7t-16.5 -7q-62 -10 -112 -3q-21 3 -42 9.5t-38.5 19t-29.5 31t-16 45.5v311q80 19 147 25q28 3 57 2.5t53 -5t42 -15t26 -28.5q9 -19 13 -39q3 -18 1.5 -40.5t-14.5 -48.5q-22 -18 -58 -37q-31 -17 -81.5 -37.5t-124.5 -40.5
q2 -43 20 -75q8 -14 20.5 -26t31.5 -21t44.5 -13t60.5 0zM115 176q54 20 94.5 39.5t67.5 34.5q32 18 55 34q8 18 7 34t-6 28q-5 14 -15 27q-20 19 -54.5 22t-67.5 -2q-39 -6 -81 -20v-197zM336 721q-5 -16 -2.5 -27t13.5 -27l-177 -115h-24z" />
    <glyph glyph-name="ecircumflex" unicode="&#xea;" horiz-adv-x="444" 
d="M194 721h56l122 -169h-33l-117 106l-117 -106h-33zM292 7l10 2q10 2 10 -2q0 -2 -3.5 -7t-16.5 -7q-62 -10 -112 -3q-21 3 -42 9.5t-38.5 19t-29.5 31t-16 45.5v311q80 19 147 25q28 3 57 2.5t53 -5t42 -15t26 -28.5q9 -19 13 -39q3 -18 1.5 -40.5t-14.5 -48.5
q-22 -18 -58 -37q-31 -17 -81.5 -37.5t-124.5 -40.5q2 -43 20 -75q8 -14 20.5 -26t31.5 -21t44.5 -13t60.5 0zM115 176q54 20 94.5 39.5t67.5 34.5q32 18 55 34q8 18 7 34t-6 28q-5 14 -15 27q-20 19 -54.5 22t-67.5 -2q-39 -6 -81 -20v-197z" />
    <glyph glyph-name="edieresis" unicode="&#xeb;" horiz-adv-x="444" 
d="M166 658q5 -21 6 -36t-1 -24q-2 -11 -5 -18q-26 -8 -41.5 -8t-23.5 4q-10 4 -13 12q-6 15 -6.5 26.5t1.5 19.5q2 9 7 15q8 9 20 11.5t25 1.5q14 -1 31 -4zM354 658q5 -21 6 -36t-1 -24q-2 -11 -5 -18q-26 -8 -41.5 -8t-23.5 4q-10 4 -13 12q-6 15 -6.5 26.5t1.5 19.5
q2 9 7 15q8 9 20 11.5t25 1.5q14 -1 31 -4zM292 7l10 2q10 2 10 -2q0 -2 -3.5 -7t-16.5 -7q-62 -10 -112 -3q-21 3 -42 9.5t-38.5 19t-29.5 31t-16 45.5v311q80 19 147 25q28 3 57 2.5t53 -5t42 -15t26 -28.5q9 -19 13 -39q3 -18 1.5 -40.5t-14.5 -48.5q-22 -18 -58 -37
q-31 -17 -81.5 -37.5t-124.5 -40.5q2 -43 20 -75q8 -14 20.5 -26t31.5 -21t44.5 -13t60.5 0zM115 176q54 20 94.5 39.5t67.5 34.5q32 18 55 34q8 18 7 34t-6 28q-5 14 -15 27q-20 19 -54.5 22t-67.5 -2q-39 -6 -81 -20v-197z" />
    <glyph glyph-name="egrave" unicode="&#xe8;" horiz-adv-x="444" 
d="M292 7l10 2q10 2 10 -2q0 -2 -3.5 -7t-16.5 -7q-62 -10 -112 -3q-21 3 -42 9.5t-38.5 19t-29.5 31t-16 45.5v311q80 19 147 25q28 3 57 2.5t53 -5t42 -15t26 -28.5q9 -19 13 -39q3 -18 1.5 -40.5t-14.5 -48.5q-22 -18 -58 -37q-31 -17 -81.5 -37.5t-124.5 -40.5
q2 -43 20 -75q8 -14 20.5 -26t31.5 -21t44.5 -13t60.5 0zM115 176q54 20 94.5 39.5t67.5 34.5q32 18 55 34q8 18 7 34t-6 28q-5 14 -15 27q-20 19 -54.5 22t-67.5 -2q-39 -6 -81 -20v-197zM295 552h-24l-177 115q11 16 13.5 27t-2.5 27z" />
    <glyph glyph-name="iacute" unicode="&#xed;" horiz-adv-x="278" 
d="M109 409v-409h60v437q-10 -16 -27.5 -21.5t-32.5 -6.5zM256 721q-5 -16 -2.5 -27t13.5 -27l-177 -115h-24z" />
    <glyph glyph-name="icircumflex" unicode="&#xee;" horiz-adv-x="278" 
d="M111 721h56l122 -169h-33l-117 106l-117 -106h-33zM109 409q15 1 32.5 6.5t27.5 21.5v-437h-60v409z" />
    <glyph glyph-name="idieresis" unicode="&#xef;" horiz-adv-x="278" 
d="M84 658q5 -21 6 -36t-1 -24q-2 -11 -5 -18q-26 -8 -41.5 -8t-23.5 4q-10 4 -13 12q-6 15 -6.5 26.5t1.5 19.5q2 9 7 15q8 9 20 11.5t25 1.5q14 -1 31 -4zM272 658q5 -21 6 -36t-1 -24q-2 -11 -5 -18q-26 -8 -41.5 -8t-23.5 4q-10 4 -13 12q-6 15 -6.5 26.5t1.5 19.5
q2 9 7 15q8 9 20 11.5t25 1.5q14 -1 31 -4zM109 409q15 1 32.5 6.5t27.5 21.5v-437h-60v409z" />
    <glyph glyph-name="igrave" unicode="&#xec;" horiz-adv-x="278" 
d="M109 409q15 1 32.5 6.5t27.5 21.5v-437h-60v409zM214 552h-24l-177 115q11 16 13.5 27t-2.5 27z" />
    <glyph glyph-name="ntilde" unicode="&#xf1;" 
d="M456 338q-1 25 -10 44q-8 17 -24.5 30.5t-47.5 13.5q-20 -3 -37.5 -9t-34.5 -12q-13 -6 -30.5 -14.5t-36 -17t-37 -16.5t-33.5 -13v95q-18 -28 -60 -28v-411h60v317q15 5 33.5 12t37 15t36 15t30.5 12q23 9 46 9t33 -16q8 -10 11 -38.5t4 -58.5q1 -36 0 -78v-189h60v338z
M138 595q-11 -8 -15.5 -7t-6.5 6t0 15q20 36 50.5 44t59.5 3q33 -6 70 -25q29 -19 52 -17.5t39 10.5q18 11 32 29q8 5 12.5 4.5t7 -4t2.5 -8t-1 -7.5q-20 -44 -48.5 -56t-54.5 -9q-31 4 -63 22q-38 16 -61.5 19t-38.5 -0.5t-22.5 -9.5t-13.5 -9z" />
    <glyph glyph-name="oacute" unicode="&#xf3;" horiz-adv-x="500" 
d="M426 403q-86 23 -158 28q-31 2 -61.5 1t-57 -8.5t-46 -22t-28.5 -38.5q-15 -45 -21 -94q-5 -42 -4 -94.5t19 -106.5q14 -38 57 -59q18 -9 44.5 -15t63 -7t84 5.5t108.5 23.5q14 48 19 108q5 51 2.5 122t-21.5 157zM385 56q-84 -20 -134 -19.5t-77 8.5q-32 10 -44 29
q-18 45 -21 93t0 88q4 47 14 90q6 13 21 20.5t34.5 10.5t42.5 2t46 -4q54 -7 118 -24q12 -81 13.5 -137t-1.5 -91q-4 -41 -12 -66zM366 721q-5 -16 -2.5 -27t13.5 -27l-177 -115h-24z" />
    <glyph glyph-name="ocircumflex" unicode="&#xf4;" horiz-adv-x="500" 
d="M222 721h56l122 -169h-33l-117 106l-117 -106h-33zM426 403q19 -86 21.5 -157t-2.5 -122q-5 -60 -19 -108q-61 -17 -108.5 -23.5t-84 -5.5t-63 7t-44.5 15q-43 21 -57 59q-18 54 -19 106.5t4 94.5q6 49 21 94q9 24 28.5 38.5t46 22t57 8.5t61.5 -1q72 -5 158 -28zM385 56
q8 25 12 66q3 35 1.5 91t-13.5 137q-64 17 -118 24q-23 3 -46 4t-42.5 -2t-34.5 -10.5t-21 -20.5q-10 -43 -14 -90q-3 -40 0 -88t21 -93q12 -19 44 -29q27 -8 77 -8.5t134 19.5z" />
    <glyph glyph-name="odieresis" unicode="&#xf6;" horiz-adv-x="500" 
d="M426 403q19 -86 21.5 -157t-2.5 -122q-5 -60 -19 -108q-61 -17 -108.5 -23.5t-84 -5.5t-63 7t-44.5 15q-43 21 -57 59q-18 54 -19 106.5t4 94.5q6 49 21 94q9 24 28.5 38.5t46 22t57 8.5t61.5 -1q72 -5 158 -28zM385 56q8 25 12 66q3 35 1.5 91t-13.5 137q-64 17 -118 24
q-23 3 -46 4t-42.5 -2t-34.5 -10.5t-21 -20.5q-10 -43 -14 -90q-3 -40 0 -88t21 -93q12 -19 44 -29q27 -8 77 -8.5t134 19.5zM196 658q5 -21 6 -36t-1 -24q-2 -11 -5 -18q-26 -8 -41.5 -8t-23.5 4q-10 4 -13 12q-6 15 -6.5 26.5t1.5 19.5q2 9 7 15q8 9 20 11.5t25 1.5
q14 -1 31 -4zM384 658q5 -21 6 -36t-1 -24q-2 -11 -5 -18q-26 -8 -41.5 -8t-23.5 4q-10 4 -13 12q-6 15 -6.5 26.5t1.5 19.5q2 9 7 15q8 9 20 11.5t25 1.5q14 -1 31 -4z" />
    <glyph glyph-name="ograve" unicode="&#xf2;" horiz-adv-x="500" 
d="M426 403q19 -86 21.5 -157t-2.5 -122q-5 -60 -19 -108q-61 -17 -108.5 -23.5t-84 -5.5t-63 7t-44.5 15q-43 21 -57 59q-18 54 -19 106.5t4 94.5q6 49 21 94q9 24 28.5 38.5t46 22t57 8.5t61.5 -1q72 -5 158 -28zM385 56q8 25 12 66q3 35 1.5 91t-13.5 137q-64 17 -118 24
q-23 3 -46 4t-42.5 -2t-34.5 -10.5t-21 -20.5q-10 -43 -14 -90q-3 -40 0 -88t21 -93q12 -19 44 -29q27 -8 77 -8.5t134 19.5zM325 552h-24l-177 115q11 16 13.5 27t-2.5 27z" />
    <glyph glyph-name="otilde" unicode="&#xf5;" horiz-adv-x="500" 
d="M426 403q-86 23 -158 28q-31 2 -61.5 1t-57 -8.5t-46 -22t-28.5 -38.5q-15 -45 -21 -94q-5 -42 -4 -94.5t19 -106.5q14 -38 57 -59q18 -9 44.5 -15t63 -7t84 5.5t108.5 23.5q14 48 19 108q5 51 2.5 122t-21.5 157zM385 56q-84 -20 -134 -19.5t-77 8.5q-32 10 -44 29
q-18 45 -21 93t0 88q4 47 14 90q6 13 21 20.5t34.5 10.5t42.5 2t46 -4q54 -7 118 -24q12 -81 13.5 -137t-1.5 -91q-4 -41 -12 -66zM106 595q-11 -8 -15.5 -7t-6.5 6t0 15q20 36 50.5 44t59.5 3q33 -6 70 -25q29 -19 52 -17.5t39 10.5q18 11 32 29q8 5 12.5 4.5t7 -4t2.5 -8
t-1 -7.5q-20 -44 -48.5 -56t-54.5 -9q-31 4 -63 22q-38 16 -61.5 19t-38.5 -0.5t-22.5 -9.5t-13.5 -9z" />
    <glyph glyph-name="uacute" unicode="&#xfa;" 
d="M396 721q-5 -16 -2.5 -27t13.5 -27l-177 -115h-24zM393 411v-309q-17 -8 -46 -24t-61 -28t-61.5 -15.5t-48.5 12.5q-4 4 -6.5 19t-4 34.5t-2 41.5t-0.5 41v32v15v181h-60v-335q1 -26 10 -44q8 -16 24 -28.5t47 -9.5q5 0 17 3t24.5 6.5t22 6.5t10.5 4q-2 -1 18.5 7.5
t46 19t47.5 19t23 8.5v-68h60v439q-15 -16 -30 -22t-30 -6z" />
    <glyph glyph-name="ucircumflex" unicode="&#xfb;" 
d="M250 721h56l122 -169h-33l-117 106l-117 -106h-33zM393 411q15 0 30 6t30 22v-439h-60v68q-1 0 -23 -8.5t-47.5 -19t-46 -19t-18.5 -7.5q-1 -1 -10.5 -4t-22 -6.5t-24.5 -6.5t-17 -3q-31 -3 -47 9.5t-24 28.5q-9 18 -10 44v335h60v-181v-15v-32t0.5 -41t2 -41.5t4 -34.5
t6.5 -19q19 -16 48.5 -12.5t61.5 15.5t61 28t46 24v309z" />
    <glyph glyph-name="udieresis" unicode="&#xfc;" 
d="M222 658q5 -21 6 -36t-1 -24q-2 -11 -5 -18q-26 -8 -41.5 -8t-23.5 4q-10 4 -13 12q-6 15 -6.5 26.5t1.5 19.5q2 9 7 15q8 9 20 11.5t25 1.5q14 -1 31 -4zM410 658q5 -21 6 -36t-1 -24q-2 -11 -5 -18q-26 -8 -41.5 -8t-23.5 4q-10 4 -13 12q-6 15 -6.5 26.5t1.5 19.5
q2 9 7 15q8 9 20 11.5t25 1.5q14 -1 31 -4zM393 411q15 0 30 6t30 22v-439h-60v68q-1 0 -23 -8.5t-47.5 -19t-46 -19t-18.5 -7.5q-1 -1 -10.5 -4t-22 -6.5t-24.5 -6.5t-17 -3q-31 -3 -47 9.5t-24 28.5q-9 18 -10 44v335h60v-181v-15v-32t0.5 -41t2 -41.5t4 -34.5t6.5 -19
q19 -16 48.5 -12.5t61.5 15.5t61 28t46 24v309z" />
    <glyph glyph-name="ugrave" unicode="&#xf9;" 
d="M354 552h-24l-177 115q11 16 13.5 27t-2.5 27zM393 411q15 0 30 6t30 22v-439h-60v68q-1 0 -23 -8.5t-47.5 -19t-46 -19t-18.5 -7.5q-1 -1 -10.5 -4t-22 -6.5t-24.5 -6.5t-17 -3q-31 -3 -47 9.5t-24 28.5q-9 18 -10 44v335h60v-181v-15v-32t0.5 -41t2 -41.5t4 -34.5
t6.5 -19q19 -16 48.5 -12.5t61.5 15.5t61 28t46 24v309z" />
    <glyph glyph-name="integral" unicode="&#x222b;" horiz-adv-x="373" 
d="M46 -198q-14 0 -16.5 3t-0.5 7t9 11q47 26 72 64.5t36 74.5q12 41 12 86v490h1v62q0 39 7.5 70.5t19.5 56.5t27.5 43.5t32.5 31.5q39 31 88 44q13 0 16 -3.5t1 -7.5t-9 -10q-48 -26 -73 -65t-35 -74q-12 -42 -12 -86v-490h-1v-62q0 -40 -7.5 -71.5t-20 -56t-28.5 -43
t-32 -31.5q-39 -31 -87 -44z" />
    <glyph glyph-name="approxequal" unicode="&#x2248;" horiz-adv-x="540" 
d="M71 334q-16 -11 -22.5 -9.5t-8.5 8.5q-3 8 0 21q14 25 32.5 40t39 21.5t42 7t41.5 -2.5q48 -8 98 -35q42 -26 74 -25t55 14q26 14 45 42q11 7 18 6.5t10 -5.5t3 -11.5t-1 -10.5q-14 -31 -31.5 -50t-36.5 -29t-39 -12.5t-38 -0.5q-43 4 -89 31q-53 23 -86.5 27t-54.5 -0.5
t-32 -13.5t-19 -13zM71 164q-16 -11 -22.5 -9.5t-8.5 8.5q-3 8 0 21q14 25 32.5 40t39 21.5t42 7t41.5 -2.5q48 -8 98 -35q42 -26 74 -25t55 14q26 14 45 42q11 7 18 6.5t10 -5.5t3 -11.5t-1 -10.5q-14 -31 -31.5 -50t-36.5 -29t-39 -12.5t-38 -0.5q-43 4 -89 31
q-53 23 -86.5 27t-54.5 -0.5t-32 -13.5t-19 -13z" />
    <glyph glyph-name="lessequal" unicode="&#x2264;" horiz-adv-x="540" 
d="M494 5h-387h-27q0 20 -6 32t-21 22h441v-54zM54 301v62l384 169q6 -17 20.5 -30.5t29.5 -19.5q-13 -6 -20 -8.5t-16.5 -6t-27 -10.5t-52.5 -21.5t-92.5 -39t-146.5 -63.5l355 -146v-61z" />
    <glyph glyph-name="greaterequal" unicode="&#x2265;" horiz-adv-x="540" 
d="M50 59h441q-15 -10 -21 -22t-6 -32h-27h-387v54zM56 126v61l355 146q-89 39 -146.5 63.5t-92.5 39t-52.5 21.5t-27 10.5t-16.5 6t-20 8.5q15 6 29.5 19.5t20.5 30.5l384 -169v-62z" />
    <glyph glyph-name="quotedbl" unicode="&#x22;" horiz-adv-x="500" 
d="M192 708q20 -29 31 -56t14.5 -51t1.5 -45.5t-7 -39.5q-12 -42 -41 -77q-10 -7 -13 -6t-4 5t1 12q21 43 19.5 84t-12.5 72.5t-23 50.5l-12 19q-6 8 -6 19.5t11 19.5q11 7 22 5t18 -12zM336 708q20 -29 31 -56t14.5 -51t1.5 -45.5t-7 -39.5q-12 -42 -41 -77q-10 -7 -13 -6
t-4 5t1 12q21 43 19.5 84t-12.5 72.5t-23 50.5l-12 19q-6 8 -6 19.5t11 19.5q11 7 22 5t18 -12z" />
    <glyph glyph-name="exclam" unicode="!" horiz-adv-x="388" 
d="M218 147h-50v390q-1 31 4.5 55.5t15 43.5t22 33t25.5 24q31 23 71 31q17 0 13 -6q-2 -3 -8 -5q-39 -23 -58.5 -53.5t-27.5 -57.5q-9 -33 -7 -65v-390zM233 73q-16 4 -30 5q-12 1 -25 -1.5t-20 -11.5q-5 -6 -7 -15q-2 -8 -1.5 -19.5t6.5 -27.5q3 -8 13 -12q8 -4 23 -4
t41 8q3 7 5 18q2 10 1 24.5t-6 35.5z" />
    <glyph glyph-name="percent" unicode="%" horiz-adv-x="889" 
d="M287 -22h-62q57 116 102.5 212.5t85 175t76.5 139.5t76.5 104t85 69t102.5 36q13 1 17 -1t-0.5 -6.5t-24.5 -14.5q-36 -16 -70 -42q-30 -23 -63.5 -60.5t-62.5 -94.5zM320 629q1 -11 3 -26q3 -26 3 -72q0 -51 -3 -76q-2 -15 -3 -25q-13 -46 -39 -63t-59 -17
q-28 1 -46 10.5t-29 20.5q-12 13 -19 29v121v118q7 17 19 30q11 11 29 21t46 10q33 0 59 -16.5t39 -64.5zM282 444q8 42 7 85.5t-7 86.5q-3 20 -10 35q-6 13 -18 23t-32 9q-20 0 -33 -5.5t-21 -31.5v-229q8 -26 21 -33.5t33 -7.5q20 -2 32 9t18 24q7 15 10 35zM763 265
q1 -11 3 -26q3 -26 3 -72q0 -51 -3 -76q-2 -15 -3 -25q-13 -46 -39 -63t-59 -17q-28 1 -46 10.5t-29 20.5q-12 13 -19 29v121v118q7 17 19 30q11 11 29 21t46 10q33 0 59 -16.5t39 -64.5zM725 80q8 41 7.5 85.5t-7.5 86.5q-3 20 -10 35q-6 13 -18 23t-32 9q-20 0 -33 -5.5
t-21 -31.5v-229q8 -26 21 -33.5t33 -7.5q20 -2 32 9t18 24q7 15 10 35z" />
    <glyph glyph-name="numbersign" unicode="#" 
d="M411 425l-22 -152h109v-48h-116l-32 -225h-57l32 225h-133l-32 -225h-57l32 225h-105v48h112l22 152h-106v48h113l28 199q10 -1 30 5t31 21l-32 -225h133l28 199q10 -1 30 5t31 21l-32 -225h108v-48h-115zM354 425h-133l-22 -152h133z" />
    <glyph glyph-name="dollar" unicode="$" 
d="M257 764q8 0 11 4.5t4 5.5v-54q38 -2 73.5 -8.5t62.5 -14.5q32 -9 60 -20q15 -15 7.5 -18.5t-22.5 -1.5q-18 3 -45 11q-43 8 -76 10t-60 0v-284q45 -12 80.5 -22t61.5 -18q30 -9 52 -16q21 -50 30 -91t9 -73.5t-6.5 -57.5t-16.5 -43q-24 -43 -67 -64q-40 -16 -75.5 -21
t-67.5 -2v-58h-15v59q-44 5 -78 21t-57 33q-27 19 -48 42q-10 12 -12 20.5t0.5 12.5t8 4t10.5 -5q12 -15 29 -27l18 -12q38 -20 70 -31t59 -15v306q-36 10 -66 19t-51 16q-26 8 -45 15q-26 45 -33.5 87.5t-5.5 75.5q2 39 12 73q15 28 35.5 47t45.5 30t52.5 16t55.5 5v44z
M437 113q8 35 5 68t-9 59q-7 30 -18 56q-77 17 -143 35v-303q46 -4 77.5 9t51.5 30q23 19 36 46zM135 625q-16 -40 -16 -76t6 -63q7 -33 21 -60l111 -28v278q-36 -4 -59.5 -12.5t-37.5 -16.5q-17 -11 -25 -22z" />
    <glyph glyph-name="ampersand" unicode="&#x26;" horiz-adv-x="778" 
d="M669 24q18 1 21.5 -3t-0.5 -9q-4 -6 -15 -14q-28 -9 -60 -4.5t-63 19t-57.5 35.5t-43.5 45q-8 -15 -17.5 -26t-19.5 -19q-11 -9 -23 -15q-38 -21 -71 -31t-61 -11.5t-51 3.5t-42 14q-44 19 -74 59q-5 35 -7.5 72t-1.5 67.5t4 51.5t8 24q41 17 83 40t81 43
q-14 20 -24.5 36.5l-17.5 27.5q-8 13 -14 24q-9 45 -9 78.5t4 56.5q4 26 13 45q32 20 73 24t76 1q41 -4 84 -15q8 -43 9.5 -78t0.5 -61q-1 -30 -4 -53q-23 -31 -53.5 -52t-65.5 -45q35 -56 64 -96t50 -71q10 19 33.5 45.5t52 47t59 28.5t54.5 -11q0 -8 -6.5 -11.5
t-14.5 -4.5q-10 -2 -21 0q-41 -10 -72 -47.5t-54 -92.5q15 -20 36 -44t46.5 -43t54 -29t56.5 -1zM262 460q11 -20 21.5 -38t21.5 -31q23 15 40 27.5t29 21.5q14 11 25 19q5 18 4.5 52.5t-6.5 101.5q-28 6 -52.5 7t-43.5 -1q-22 -2 -41 -7q-6 -30 -6.5 -57.5t1.5 -48.5
q2 -25 7 -46zM377 81q15 9 25.5 23t14.5 29q-39 57 -73.5 107t-58.5 85q-23 -12 -45.5 -24t-40.5 -21q-21 -11 -41 -20q-2 -35 -2.5 -66t0.5 -55q1 -28 2 -52q45 -28 84.5 -32.5t69.5 1.5q35 7 65 25z" />
    </font>
</defs>
</svg>
